<svg width="88" height="70" viewBox="0 0 88 70" fill="none" xmlns="http://www.w3.org/2000/svg">
<path d="M18.2777 0C13.2556 0 9.54123 4.38877 9.70724 9.14876C9.86724 13.7202 9.65827 19.6446 8.16424 24.4727C6.66821 29.3163 4.13609 32.3779 0 32.7707V37.2293C4.13609 37.6221 6.66821 40.6837 8.16424 45.5273C9.65827 50.3554 9.86524 56.2798 9.70724 60.8512C9.54123 65.6112 13.2556 70 18.2777 70H69.732C74.7541 70 78.4685 65.6112 78.3025 60.8512C78.1425 56.2798 78.3496 50.3554 79.8416 45.5273C81.3396 40.6837 83.8659 37.6221 88.002 37.2293V32.7707C83.8659 32.3779 81.3396 29.3163 79.8416 24.4727C78.3476 19.6446 78.1425 13.7202 78.3025 9.14876C78.4665 4.38877 74.7502 0 69.7281 0H18.2777ZM18.2777 3.88889H69.7281C71.1941 3.88889 72.2123 4.60022 72.8063 5.19911C73.8063 6.20439 74.3524 7.5964 74.3024 9.01584C74.1444 13.5464 74.3114 20.0981 76.0095 25.5892C77.5695 30.637 80.0242 33.4639 82.5683 35C80.0262 36.5361 77.5715 39.365 76.0095 44.4108C74.3115 49.9019 74.1444 56.4536 74.3024 60.9841C74.3524 62.4036 73.8063 63.7936 72.8063 64.8009C72.2123 65.3998 71.1941 66.1111 69.7281 66.1111H18.2777C16.8117 66.1111 15.7975 65.3998 15.2035 64.8009C14.2034 63.7956 13.6573 62.4036 13.7073 60.9841C13.8653 56.4536 13.6944 49.9019 11.9963 44.4108C10.4363 39.365 7.98166 36.5361 5.4376 35C7.98166 33.4639 10.4363 30.635 11.9963 25.5892C13.6944 20.0981 13.8653 13.5464 13.7073 9.01584C13.6573 7.5964 14.2034 6.20439 15.2035 5.19911C15.7975 4.60022 16.8117 3.88889 18.2777 3.88889ZM29.735 16.786V53.2102H45.1533C49.1594 53.2102 52.4867 52.2612 54.7707 50.4606C57.0588 48.6581 58.2669 46.0362 58.2669 42.8765C58.2669 38.1048 54.7773 34.5181 49.5792 33.9328V33.8758C53.4013 33.2342 56.3841 29.7522 56.3841 25.9158C56.3841 23.2033 55.3125 20.9069 53.2824 19.2735C51.2604 17.646 48.4194 16.786 45.0713 16.786L29.735 16.786ZM35.8406 21.5522H43.6455C47.9276 21.5522 50.2863 23.3771 50.2863 26.6943C50.2843 30.2546 47.4835 32.2162 42.3994 32.2162H35.8406L35.8406 21.5522ZM35.8406 36.6786H43.5908C49.1909 36.6786 52.0324 38.6479 52.0324 42.5271C52.0324 46.4024 49.2307 48.4516 43.9346 48.4516H35.8406V36.6786Z" fill="#DFB2F2"/>
</svg>
