<svg width="52" height="76" viewBox="0 0 52 76" fill="none" xmlns="http://www.w3.org/2000/svg">
<path d="M13.6 0C6.10803 0 0 6.10803 0 13.6C0 18.8805 3.11989 23.3486 7.53437 25.6C3.11987 27.8514 0 32.3195 0 37.6C0 42.8805 3.11989 47.3486 7.53437 49.6C3.11987 51.8514 0 56.3195 0 61.6C0 69.092 6.10803 75.2 13.6 75.2C21.092 75.2 27.2 69.092 27.2 61.6V49.6V44.25C29.3462 48.3227 33.4913 51.2 38.4 51.2C45.4503 51.2 51.2 45.4503 51.2 38.4C51.2 32.6052 47.2419 27.8859 41.9437 26.3188C47.2857 24.4827 51.2 19.5524 51.2 13.6C51.2 6.10803 45.092 0 37.6 0H25.6H13.6ZM13.6 3.2H24V24H13.6C7.83757 24 3.2 19.3624 3.2 13.6C3.2 7.83757 7.83757 3.2 13.6 3.2ZM27.2 3.2H37.6C43.3624 3.2 48 7.83757 48 13.6C48 19.3624 43.3624 24 37.6 24H27.2V3.2ZM13.6 27.2H24V48H13.6C7.83757 48 3.2 43.3624 3.2 37.6C3.2 31.8376 7.83757 27.2 13.6 27.2ZM27.2 27.2H32.55C30.2541 28.4098 28.4098 30.2541 27.2 32.55V27.2ZM38.4 28.8C43.7209 28.8 48 33.0791 48 38.4C48 43.7209 43.7209 48 38.4 48C33.0791 48 28.8 43.7209 28.8 38.4C28.8 33.0791 33.0791 28.8 38.4 28.8ZM13.6 51.2H24V61.6C24 67.3624 19.3624 72 13.6 72C7.83757 72 3.2 67.3624 3.2 61.6C3.2 55.8376 7.83757 51.2 13.6 51.2Z" fill="#DFB2F2"/>
</svg>
