<svg width="84" height="84" viewBox="0 0 84 84" fill="none" xmlns="http://www.w3.org/2000/svg">
<path d="M42 0C18.8294 0 0 18.8294 0 42C0 65.1706 18.8294 84 42 84C65.1706 84 84 65.1706 84 42C84 18.8294 65.1706 0 42 0ZM42 3.65217C63.196 3.65217 80.3478 20.804 80.3478 42C80.3478 42.1303 80.3384 42.2587 80.3371 42.3888C79.1691 42.2809 77.8196 42.1786 76.1036 42.1177C73.6772 42.0316 70.6189 42.0566 67.1515 42.2283C67.2801 41.3328 67.3702 40.4248 67.3726 39.4927C67.5494 36.0731 66.4011 32.8741 64.5336 30.0484C64.9848 28.4894 65.514 26.5061 65.6464 24.2563C65.7972 21.692 65.5759 18.8484 63.5171 16.927L62.9893 16.4348H62.2689C57.3693 16.4348 54.0157 18.4859 51.965 20.1119C49.004 18.9658 45.6745 18.2609 42 18.2609C38.3047 18.2609 34.9431 18.9757 31.8602 20.1191C29.8107 18.4922 26.4541 16.4348 21.5493 16.4348H20.8324L20.3045 16.9234C18.2991 18.7856 18.1144 21.5511 18.2395 24.1029C18.3498 26.3532 18.8484 28.3996 19.2916 30.0342C17.3926 32.915 16.2529 36.1968 16.2529 39.4428C16.2529 40.3771 16.3398 41.288 16.4669 42.1855C13.1694 42.0325 10.2299 42.0031 7.89642 42.0856C6.18045 42.1463 4.83082 42.2478 3.66289 42.3567C3.6618 42.2374 3.65219 42.1196 3.65219 42C3.65219 20.804 20.804 3.65217 42 3.65217ZM22.6371 20.3259C26.3213 20.675 29.0932 22.3202 30.3765 23.4609L31.2325 24.2171L32.2882 23.7855C35.1761 22.5964 38.3971 21.913 42 21.913C45.6029 21.913 48.8248 22.5998 51.4942 23.7677L52.5642 24.2385L53.438 23.4609C54.7218 22.3198 57.4983 20.6742 61.1846 20.3259C61.6748 21.1385 62.1007 22.2941 61.9978 24.0423C61.8747 26.1345 61.3151 28.4133 60.8922 29.7667L60.6175 30.6476L61.1632 31.393C62.9701 33.8569 63.8914 36.5235 63.7347 39.3429L63.7312 39.3928V39.4428C63.7312 43.9997 62.0902 47.6469 58.5953 50.3494C55.1005 53.0518 49.5831 54.7826 41.8181 54.7826C34.0531 54.7826 28.5323 53.0518 25.0374 50.3494C21.5425 47.6469 19.9051 43.9997 19.9051 39.4428C19.9051 36.7681 20.8709 33.8257 22.6549 31.393L23.1899 30.6654L22.9331 29.7987C22.51 28.36 21.9913 26.0292 21.8881 23.9246C21.8023 22.1741 22.2166 21.0676 22.6371 20.3259ZM12.5722 43.8653C13.8627 43.8818 15.3418 43.9514 16.8236 44.0258C16.9651 44.5952 17.1266 45.1553 17.3229 45.7021C11.2834 45.8295 6.76518 46.4368 3.98032 46.9575C3.86258 46.0439 3.76879 45.1226 3.7164 44.1899C5.77449 43.9946 8.67574 43.8155 12.5722 43.8653ZM71.4278 43.8939C75.3216 43.8444 78.2218 44.0236 80.2801 44.2184C80.2277 45.1378 80.1355 46.046 80.0197 46.9468C77.1353 46.4177 72.4951 45.8105 66.2991 45.7128C66.4914 45.1768 66.6515 44.6263 66.7913 44.0686C68.4258 43.981 70.0205 43.9117 71.4278 43.8939ZM18.1004 47.5139C19.1901 49.6976 20.7471 51.6473 22.8047 53.2383C25.6178 55.4136 29.2751 56.9334 33.7398 57.7464C33.1557 58.3466 32.6245 59.0056 32.1527 59.7009L32.0421 59.6046C32.0522 59.5931 31.1343 60.0525 29.7631 60.1753C28.3918 60.2981 26.7003 60.2609 25.2014 60.2609C22.9644 60.2609 21.9791 59.204 20.4044 57.2792C19.5323 56.1039 18.4692 55.1521 17.437 54.4295C16.38 53.6897 15.4784 53.1675 14.3626 52.9815L14.2128 52.9565H14.0594C13.2073 52.9565 12.3827 53.0182 11.6128 53.8981C11.2278 54.3381 10.9625 55.1525 11.1349 55.8419C11.3072 56.5313 11.7433 56.9549 12.1335 57.215C14.6293 58.8789 15.0703 62.1719 16.6345 65.1007C18.0952 68.0114 21.2477 69.3913 24.4703 69.3913H29.2174V78.1615C16.376 73.6288 6.69204 62.4606 4.25851 48.7622C7.05406 48.2357 11.7354 47.6026 18.1004 47.5139ZM65.5251 47.5282C72.031 47.5839 76.8437 48.2161 79.7451 48.7515C77.3148 62.4549 67.6274 73.6276 54.7826 78.1615V68.6602C54.7826 65.7666 53.8324 62.5758 52.179 59.9149C51.677 59.107 51.0865 58.343 50.4278 57.6573C54.6556 56.8221 58.1287 55.3283 60.8315 53.2383C62.8847 51.6507 64.4382 49.7069 65.5251 47.5282ZM39.6247 58.6167H44.7391C46.2234 58.6167 47.8077 59.7996 49.0761 61.8409C50.3445 63.8821 51.1304 66.6233 51.1304 68.6602V79.2493C48.204 79.963 45.1478 80.3478 42 80.3478C38.8522 80.3478 35.796 79.963 32.8696 79.2493V68.6602C32.8696 66.6684 33.7239 63.9337 35.0773 61.8837C36.4307 59.8336 38.1404 58.6167 39.6247 58.6167ZM18.8244 60.7745C20.4054 62.4143 22.3194 63.913 25.2014 63.913C26.6243 63.913 28.4002 63.9643 30.0876 63.8132C30.0936 63.8126 30.0995 63.8101 30.1055 63.8096C29.8831 64.4487 29.7173 65.0918 29.5776 65.7391H24.4703C22.2181 65.7391 20.6271 64.9255 19.8944 63.4601L19.8801 63.4351L19.8694 63.4137C19.5692 62.8561 19.1751 61.7411 18.8244 60.7745Z" fill="#DFB2F2"/>
</svg>
