<svg width="84" height="84" viewBox="0 0 84 84" fill="none" xmlns="http://www.w3.org/2000/svg">
<path d="M42 3.65217C43.0343 3.65217 44.0044 4.05163 44.732 4.78634L79.2136 39.268C80.7258 40.7731 80.7258 43.2269 79.2136 44.732L44.732 79.2136C44.0044 79.9483 43.0343 80.3478 42 80.3478C40.9657 80.3478 39.9956 79.9483 39.268 79.2136L4.78635 44.732C3.27411 43.2269 3.27411 40.7731 4.78635 39.268L27.2843 16.77L31.4358 20.9215C30.4372 24.6308 31.4429 28.6753 34.2534 31.4857C34.9239 32.1562 35.6872 32.734 36.5217 33.2119V50.7952C33.1977 52.714 31.0435 56.2877 31.0435 60.2609C31.0435 66.3026 35.9582 71.2174 42 71.2174C48.0418 71.2174 52.9565 66.3026 52.9565 60.2609C52.9565 56.2877 50.8023 52.714 47.4783 50.7952V36.964L49.6967 39.1824C48.698 42.8916 49.7038 46.9361 52.5143 49.7466C54.5829 51.8152 57.3363 52.9565 60.2609 52.9565C63.1855 52.9565 65.9389 51.8152 68.0075 49.7466C72.2802 45.4738 72.2802 38.5262 68.0075 34.2534C65.946 32.1919 63.214 31.0577 60.2965 31.0577C59.3336 31.0577 58.3706 31.1861 57.4433 31.4358L52.5642 26.5567C53.5628 22.8475 52.5571 18.803 49.7466 15.9925C47.6851 13.931 44.9531 12.7969 42.0357 12.7969C41.0727 12.7969 40.1097 12.9253 39.1824 13.1749L35.0309 9.02344L39.268 4.78636C39.9956 4.05165 40.9657 3.65217 42 3.65217ZM42 0C40.074 0 38.1481 0.734708 36.6858 2.20414L29.8665 9.02342L38.305 17.4619C39.4534 16.7914 40.7445 16.449 42.0356 16.449C43.8903 16.449 45.7449 17.1552 47.1644 18.5747C49.5682 20.9786 49.9178 24.6307 48.27 27.4269L56.5659 35.7228C57.7143 35.0523 59.0054 34.7099 60.2965 34.7099C62.1511 34.7099 64.0057 35.4161 65.4252 36.8356C68.2785 39.6888 68.2785 44.3111 65.4252 47.1644C63.9986 48.591 62.1297 49.3043 60.2608 49.3043C58.392 49.3043 56.5231 48.591 55.0964 47.1644C52.6926 44.7605 52.3431 41.1083 53.9908 38.305L45.695 30.0092C45.1029 30.3587 44.4752 30.6155 43.8261 30.7795V53.2133C46.9718 54.0265 49.3043 56.8583 49.3043 60.2609C49.3043 64.2982 46.0373 67.5652 42 67.5652C37.9697 67.5652 34.6956 64.2982 34.6956 60.2609C34.6956 56.8584 37.0282 54.0265 40.1739 53.2133V30.7796C38.9541 30.4657 37.7914 29.8594 36.8356 28.9036C34.4317 26.4997 34.0822 22.8475 35.7299 20.0513L27.2843 11.6057L2.20415 36.6858C-0.734717 39.6175 -0.734717 44.3825 2.20415 47.3142L36.6858 81.7959C38.1481 83.2653 40.074 84 42 84C43.9259 84 45.8519 83.2653 47.3142 81.7959L81.7958 47.3142C84.7347 44.3825 84.7347 39.6175 81.7958 36.6858L47.3142 2.20418C45.8519 0.734744 43.9259 0 42 0Z" fill="#DFB2F2"/>
</svg>
