<svg width="241" height="241" viewBox="0 0 241 241" fill="none" xmlns="http://www.w3.org/2000/svg">
<path d="M90.4271 155.046C67.5455 147.995 15.1583 131.44 25.1471 84.9663C36.6671 31.2831 100.133 67.6863 139.066 49.5231C166.622 36.6735 224.146 23.1231 219.922 81.1359C215.813 137.565 213.456 178.446 180.019 188.147C146.582 197.848 125.03 165.702 90.4271 155.046Z" fill="#66D994"/>
<path opacity="0.7" d="M90.5316 154.743C67.65 147.691 15.2628 131.136 25.2516 84.6626C36.7716 30.9794 100.237 67.3826 139.17 49.2194C166.727 36.3698 224.25 22.8194 220.026 80.8322C215.917 137.261 213.56 178.143 180.124 187.843C146.687 197.544 125.135 165.399 90.5316 154.743Z" fill="white"/>
<path d="M21.4121 196.514H219.921" stroke="#263238" stroke-linecap="round" stroke-linejoin="round"/>
<path d="M55.387 141.794C58.267 144.194 57.307 158.306 66.3118 152.234C75.3166 146.162 59.9758 142.566 60.8494 139.125C62.0782 134.325 82.339 140.085 78.9406 130.869C75.5422 121.653 63.427 135.515 60.2446 132.083C57.3166 128.925 71.899 117.51 65.1022 115.571C58.3054 113.632 59.7502 130.139 55.387 130.139C51.979 130.139 52.6174 114.357 46.3534 119.939C40.0894 125.522 53.779 131.027 51.9886 134.493C50.6254 137.128 39.8494 130.624 40.3342 136.696C40.819 142.768 52.315 139.254 55.387 141.794Z" fill="#66D994"/>
<path d="M57.307 134.574C57.307 134.574 50.7598 142.509 51.4894 164.133" stroke="#263238" stroke-linecap="round" stroke-linejoin="round"/>
<path d="M70.0901 145.821C68.9285 143.483 59.2949 141.885 64.8101 136.811C70.3253 131.738 70.3061 142.614 72.7589 142.571C76.1909 142.514 75.5237 127.97 81.1877 131.723C86.8517 135.477 75.5909 141.414 77.3957 144.098C79.0517 146.57 89.0453 138.582 89.2709 143.464C89.4965 148.346 78.6245 144.731 77.9285 147.674C77.3861 149.963 88.0997 152.046 83.3477 155.354C78.5957 158.661 77.0741 148.6 74.4629 149.253C72.4709 149.733 75.1301 158.032 71.1269 156.736C67.1237 155.44 71.3093 148.269 70.0901 145.821Z" fill="#66D994"/>
<path opacity="0.3" d="M70.0901 145.821C68.9285 143.483 59.2949 141.885 64.8101 136.811C70.3253 131.738 70.3061 142.614 72.7589 142.571C76.1909 142.514 75.5237 127.97 81.1877 131.723C86.8517 135.477 75.5909 141.414 77.3957 144.098C79.0517 146.57 89.0453 138.582 89.2709 143.464C89.4965 148.346 78.6245 144.731 77.9285 147.674C77.3861 149.963 88.0997 152.046 83.3477 155.354C78.5957 158.661 77.0741 148.6 74.4629 149.253C72.4709 149.733 75.1301 158.032 71.1269 156.736C67.1237 155.44 71.3093 148.269 70.0901 145.821Z" fill="black"/>
<path d="M75.0672 145.922C75.0672 145.922 56.4096 143.978 54.5664 164.133" stroke="#263238" stroke-linecap="round" stroke-linejoin="round"/>
<path d="M39.4706 143.738C36.5906 146.138 37.5506 160.25 28.5458 154.178C19.541 148.106 34.8866 144.506 34.0082 141.069C32.7842 136.269 12.5186 142.029 15.9218 132.813C19.325 123.597 31.4306 137.464 34.6418 134.027C37.565 130.874 22.9874 119.459 29.7842 117.515C36.581 115.571 35.117 132.088 39.4946 132.088C42.9026 132.088 42.269 116.301 48.533 121.888C54.797 127.475 41.1026 132.976 42.8978 136.442C44.2562 139.077 55.037 132.573 54.5522 138.64C54.0674 144.707 42.5282 141.198 39.4706 143.738Z" fill="#66D994"/>
<path opacity="0.3" d="M39.4706 143.738C36.5906 146.138 37.5506 160.25 28.5458 154.178C19.541 148.106 34.8866 144.506 34.0082 141.069C32.7842 136.269 12.5186 142.029 15.9218 132.813C19.325 123.597 31.4306 137.464 34.6418 134.027C37.565 130.874 22.9874 119.459 29.7842 117.515C36.581 115.571 35.117 132.088 39.4946 132.088C42.9026 132.088 42.269 116.301 48.533 121.888C54.797 127.475 41.1026 132.976 42.8978 136.442C44.2562 139.077 55.037 132.573 54.5522 138.64C54.0674 144.707 42.5282 141.198 39.4706 143.738Z" fill="white"/>
<path d="M37.4062 136.518C37.4062 136.518 45.9022 147.866 47.8462 166.802" stroke="#263238" stroke-linecap="round" stroke-linejoin="round"/>
<path d="M43.4883 196.432H56.7363C57.9661 196.437 59.1528 195.979 60.0594 195.148C60.9661 194.317 61.526 193.174 61.6275 191.949L63.7107 167.469C63.765 166.796 63.6795 166.12 63.4596 165.482C63.2397 164.844 62.8901 164.259 62.4329 163.763C61.9757 163.267 61.4207 162.871 60.803 162.6C60.1852 162.329 59.518 162.189 58.8435 162.189H41.4051C40.7307 162.189 40.0637 162.329 39.4461 162.6C38.8286 162.871 38.2739 163.267 37.8171 163.763C37.3602 164.26 37.0111 164.845 36.7918 165.483C36.5724 166.12 36.4876 166.797 36.5427 167.469L38.6259 191.949C38.7258 193.17 39.2814 194.309 40.1821 195.139C41.0829 195.97 42.263 196.431 43.4883 196.432Z" fill="#66D994" stroke="#263238" stroke-linecap="round" stroke-linejoin="round"/>
<path d="M133.263 65.2298C133.263 65.2298 138.701 66.2882 139.685 70.7969C141.16 74.6615 138.701 74.6615 140.176 76.5938C142.688 79.8844 140.773 82.9724 141.541 84.3458C142.309 85.7192 142.273 86.2232 140.176 88.1876C138.079 90.152 132.445 89.5309 128.762 91.4839C125.079 93.4369 122.178 89.2939 121.203 88.2204C120.228 87.1468 123.09 85.6249 122.988 83.4607C122.886 81.2964 121.054 69.3357 123.397 67.7396C125.74 66.1435 131.232 64.3561 133.263 65.2298Z" fill="#263238" stroke="#263238" stroke-width="0.889063" stroke-linecap="round" stroke-linejoin="round"/>
<path d="M142.689 161.277C138.259 161.277 125.472 158.397 125.472 158.397H159.907C159.907 158.397 147.115 161.277 142.689 161.277Z" fill="#263238" stroke="#263238" stroke-linecap="round" stroke-linejoin="round"/>
<path d="M146.635 159.832H138.744V165.242H146.635V159.832Z" fill="#858585" stroke="#263238" stroke-linecap="round" stroke-linejoin="round"/>
<path d="M147.801 165.242H137.577V188.498H147.801V165.242Z" fill="#999999" stroke="#263238" stroke-linecap="round" stroke-linejoin="round"/>
<path d="M161.894 151.49H155.227C155.966 146.91 156.513 142.245 156.849 137.622H163.492C163.175 142.245 162.633 146.91 161.894 151.49Z" fill="#858585" stroke="#263238" stroke-linecap="round" stroke-linejoin="round"/>
<path d="M171.988 96.6592H143.342C139.982 96.6592 137.769 99.5056 138.422 102.856C140.251 113.091 141.345 123.444 141.695 133.835C141.692 134.544 141.83 135.247 142.1 135.902C142.371 136.557 142.769 137.152 143.271 137.652C143.774 138.152 144.371 138.548 145.027 138.815C145.683 139.083 146.387 139.218 147.095 139.211H171.211C172.709 139.196 174.154 138.646 175.283 137.66C176.412 136.675 177.152 135.318 177.369 133.835C178.532 123.552 178.952 113.199 178.627 102.856C178.468 99.5056 175.353 96.6592 171.988 96.6592Z" fill="#858585" stroke="#263238" stroke-linecap="round" stroke-linejoin="round"/>
<path d="M173.549 102.856C173.874 113.199 173.454 123.552 172.291 133.835C172.074 135.318 171.334 136.675 170.205 137.66C169.076 138.646 167.631 139.196 166.133 139.211H147.096C146.387 139.218 145.684 139.083 145.027 138.815C144.371 138.548 143.774 138.152 143.272 137.652C142.769 137.152 142.371 136.557 142.101 135.902C141.83 135.247 141.693 134.544 141.696 133.835C141.347 123.444 140.255 113.091 138.427 102.856C137.774 99.496 139.977 96.6592 143.347 96.6592H166.91C170.275 96.6592 173.39 99.5056 173.549 102.856Z" fill="#999999" stroke="#263238" stroke-linecap="round" stroke-linejoin="round"/>
<path d="M159.907 192.674C159.907 192.801 159.878 192.927 159.823 193.043C159.768 193.158 159.688 193.259 159.588 193.339C159.489 193.42 159.373 193.476 159.249 193.506C159.124 193.535 158.995 193.536 158.87 193.509C155.736 192.827 146.352 190.85 142.689 190.85C139.027 190.85 129.638 192.827 126.504 193.509C126.379 193.536 126.25 193.535 126.126 193.506C126.002 193.476 125.886 193.42 125.787 193.339C125.688 193.259 125.608 193.158 125.553 193.042C125.499 192.927 125.471 192.801 125.472 192.674C125.471 192.16 125.647 191.663 125.969 191.263C126.292 190.864 126.741 190.588 127.243 190.48C130.91 189.693 139.276 187.979 142.689 187.979C146.102 187.979 154.468 189.693 158.136 190.48C158.637 190.588 159.086 190.865 159.408 191.264C159.73 191.663 159.906 192.161 159.907 192.674Z" fill="#263238" stroke="#263238" stroke-linecap="round" stroke-linejoin="round"/>
<path d="M125.467 190.946C124.883 190.945 124.313 191.117 123.827 191.44C123.342 191.764 122.964 192.224 122.74 192.763C122.516 193.301 122.457 193.894 122.571 194.467C122.685 195.039 122.965 195.564 123.378 195.977C123.79 196.389 124.316 196.67 124.888 196.784C125.46 196.897 126.053 196.838 126.592 196.615C127.131 196.391 127.591 196.013 127.914 195.527C128.238 195.042 128.41 194.471 128.409 193.888C128.408 193.108 128.097 192.36 127.546 191.809C126.994 191.257 126.247 190.947 125.467 190.946ZM125.467 195.486C125.15 195.487 124.841 195.394 124.577 195.219C124.314 195.044 124.108 194.795 123.986 194.503C123.865 194.211 123.832 193.889 123.894 193.579C123.955 193.269 124.107 192.983 124.33 192.759C124.553 192.535 124.838 192.383 125.148 192.321C125.458 192.259 125.78 192.29 126.072 192.411C126.365 192.532 126.615 192.736 126.791 192.999C126.966 193.262 127.06 193.572 127.06 193.888C127.06 194.311 126.893 194.717 126.594 195.017C126.295 195.316 125.89 195.485 125.467 195.486Z" fill="#858585" stroke="#263238" stroke-linecap="round" stroke-linejoin="round"/>
<path d="M142.689 190.946C142.105 190.944 141.533 191.116 141.047 191.439C140.56 191.763 140.181 192.224 139.957 192.764C139.733 193.304 139.675 193.898 139.79 194.471C139.904 195.044 140.187 195.57 140.601 195.982C141.015 196.394 141.542 196.674 142.116 196.786C142.689 196.897 143.283 196.836 143.822 196.61C144.361 196.383 144.82 196.002 145.141 195.514C145.462 195.026 145.631 194.453 145.627 193.869C145.62 193.093 145.308 192.351 144.758 191.804C144.209 191.256 143.465 190.948 142.689 190.946ZM142.689 195.486C142.374 195.487 142.065 195.395 141.802 195.221C141.539 195.046 141.333 194.798 141.211 194.507C141.089 194.216 141.055 193.896 141.115 193.586C141.174 193.276 141.324 192.991 141.546 192.766C141.767 192.541 142.05 192.387 142.359 192.323C142.668 192.259 142.989 192.287 143.282 192.405C143.574 192.523 143.826 192.725 144.004 192.986C144.182 193.246 144.279 193.553 144.283 193.869C144.285 194.08 144.246 194.289 144.167 194.485C144.088 194.681 143.971 194.859 143.823 195.01C143.675 195.16 143.498 195.28 143.304 195.362C143.109 195.443 142.9 195.486 142.689 195.486Z" fill="#858585" stroke="#263238" stroke-linecap="round" stroke-linejoin="round"/>
<path d="M159.547 190.946C158.964 190.946 158.394 191.119 157.909 191.443C157.424 191.767 157.046 192.227 156.823 192.766C156.601 193.305 156.542 193.898 156.657 194.469C156.771 195.041 157.052 195.566 157.465 195.978C157.877 196.39 158.403 196.671 158.975 196.784C159.547 196.897 160.14 196.838 160.678 196.614C161.216 196.39 161.676 196.012 162 195.527C162.323 195.041 162.495 194.471 162.494 193.888C162.494 193.501 162.418 193.118 162.27 192.761C162.121 192.404 161.904 192.079 161.631 191.806C161.357 191.532 161.032 191.316 160.674 191.168C160.317 191.021 159.934 190.945 159.547 190.946ZM159.547 195.486C159.231 195.486 158.922 195.393 158.659 195.217C158.396 195.041 158.191 194.792 158.07 194.5C157.949 194.208 157.917 193.886 157.979 193.576C158.041 193.266 158.193 192.981 158.417 192.758C158.64 192.534 158.925 192.382 159.235 192.32C159.545 192.259 159.866 192.29 160.158 192.411C160.451 192.532 160.7 192.737 160.876 193C161.051 193.263 161.145 193.572 161.145 193.888C161.145 194.312 160.977 194.718 160.677 195.018C160.377 195.318 159.971 195.486 159.547 195.486Z" fill="#858585" stroke="#263238" stroke-linecap="round" stroke-linejoin="round"/>
<path d="M151.416 150.558C139.923 150.923 128.42 150.414 117.004 149.037C116.478 148.942 115.936 148.965 115.419 149.106C114.903 149.246 114.424 149.5 114.018 149.849C113.612 150.198 113.289 150.634 113.072 151.123C112.856 151.613 112.751 152.145 112.766 152.68V153.242C112.794 154.421 113.233 155.553 114.006 156.444C114.78 157.334 115.841 157.926 117.004 158.118C128.42 159.494 139.923 160.002 151.416 159.64V150.558Z" fill="#999999" stroke="#263238" stroke-linecap="round" stroke-linejoin="round"/>
<path d="M169.464 157.97C162.331 158.862 155.261 159.453 148.08 159.76C147.666 159.773 147.254 159.702 146.869 159.552C146.483 159.402 146.131 159.176 145.835 158.887C145.539 158.598 145.304 158.252 145.145 157.87C144.985 157.488 144.905 157.078 144.907 156.664V153.904C144.916 153.061 145.251 152.253 145.843 151.653C146.435 151.052 147.237 150.704 148.08 150.683C155.28 150.371 162.331 149.781 169.464 148.888C169.855 148.815 170.257 148.83 170.641 148.932C171.025 149.035 171.381 149.222 171.683 149.481C171.985 149.739 172.226 150.062 172.386 150.425C172.547 150.789 172.625 151.183 172.613 151.581V154.341C172.59 155.217 172.263 156.057 171.689 156.719C171.114 157.381 170.328 157.823 169.464 157.97Z" fill="#858585" stroke="#263238" stroke-linecap="round" stroke-linejoin="round"/>
<path d="M121.708 195.309C121.708 193.706 121.358 190.509 119.467 186.357L117.004 177.477L109.324 180.755L111.484 187.557C111.484 187.557 104.884 190.706 102.446 191.555C100.823 192.122 95.9659 193.235 96.2059 195.318C96.2059 195.465 96.2348 195.611 96.291 195.746C96.3472 195.882 96.4296 196.005 96.5334 196.109C96.6373 196.213 96.7606 196.295 96.8963 196.352C97.032 196.408 97.1774 196.437 97.3243 196.437H120.585C120.733 196.437 120.88 196.409 121.017 196.352C121.154 196.296 121.278 196.212 121.382 196.108C121.487 196.003 121.57 195.878 121.625 195.741C121.681 195.604 121.71 195.457 121.708 195.309Z" fill="white" stroke="#263238" stroke-linecap="round" stroke-linejoin="round"/>
<path d="M117.479 190.11C116.279 190.994 109.881 192.112 111.484 190.83C113.087 189.549 111.484 187.552 111.484 187.552C111.484 187.552 104.884 190.701 102.446 191.55C100.823 192.117 95.9659 193.23 96.2059 195.314C96.2059 195.46 96.2348 195.606 96.291 195.742C96.3472 195.877 96.4296 196.001 96.5334 196.104C96.6373 196.208 96.7606 196.291 96.8963 196.347C97.032 196.403 97.1774 196.432 97.3243 196.432H120.585C120.733 196.433 120.879 196.404 121.016 196.347C121.153 196.291 121.277 196.207 121.381 196.102C121.485 195.997 121.567 195.873 121.622 195.736C121.678 195.599 121.705 195.452 121.703 195.304C121.625 192.872 121.128 190.473 120.235 188.21C118.915 188.224 118.679 189.232 117.479 190.11Z" fill="#B455FF" stroke="#263238" stroke-linecap="round" stroke-linejoin="round"/>
<path d="M127.262 196.432H144.302C144.472 196.432 144.637 196.372 144.769 196.264C144.9 196.155 144.99 196.004 145.022 195.837C145.281 194.483 145.224 191.454 143.688 187.432L143.534 179.272L134.808 180.755L135.912 187.715C135.912 187.715 132.398 191.584 130.728 192.275C129.556 192.755 126.888 192.813 126.532 195.635C126.523 195.736 126.535 195.839 126.567 195.935C126.6 196.031 126.652 196.12 126.721 196.195C126.789 196.27 126.873 196.33 126.966 196.371C127.06 196.412 127.16 196.432 127.262 196.432Z" fill="white" stroke="#263238" stroke-linecap="round" stroke-linejoin="round"/>
<path d="M140.827 190.144C139.027 191.402 137.698 191.55 138.538 189.664C139.378 187.778 135.931 187.71 135.931 187.71C135.931 187.71 132.418 191.579 130.747 192.27C129.576 192.75 126.907 192.808 126.552 195.63C126.54 195.733 126.55 195.837 126.581 195.936C126.612 196.035 126.664 196.126 126.733 196.203C126.802 196.28 126.886 196.342 126.981 196.384C127.076 196.426 127.178 196.447 127.282 196.446H144.322C144.492 196.446 144.657 196.387 144.788 196.278C144.92 196.169 145.009 196.019 145.042 195.851C145.301 194.498 145.243 191.469 143.707 187.446C142.373 187.754 142.613 188.882 140.827 190.144Z" fill="#B455FF" stroke="#263238" stroke-linecap="round" stroke-linejoin="round"/>
<path d="M125.568 134.114C125.568 134.114 123.85 135.87 116.827 136.994C109.805 138.117 95.2273 141.63 95.4049 147.39C95.5825 153.15 109.008 183.87 109.008 183.87C109.008 183.87 115.728 182.594 118.848 180.674C118.848 180.674 113.439 158.752 109.383 152.992C109.383 152.992 127.589 150.75 137.659 146.594C147.73 142.437 141.807 132.962 141.807 132.962L125.568 134.114Z" fill="#263238" stroke="#263238" stroke-linecap="round" stroke-linejoin="round"/>
<path d="M136.987 133.302C136.987 133.302 139.569 137.622 137.639 140.022C135.71 142.422 124.751 146.901 125.99 152.344C127.228 157.787 131.318 165.462 133.982 183.702C133.982 183.702 140.188 182.742 144.345 180.981C144.345 180.981 145.036 162.424 140.212 154.422C140.212 154.422 154.027 151.864 155.428 147.222C156.83 142.581 154.209 135.486 154.156 132.952L136.987 133.302Z" fill="#263238" stroke="#263238" stroke-linecap="round" stroke-linejoin="round"/>
<path d="M128.683 140.176C128.363 140.152 128.042 140.152 127.723 140.176" stroke="#7F7F7F" stroke-width="0.75" stroke-linecap="round" stroke-linejoin="round"/>
<path d="M129.307 137.31C129.307 137.31 132.143 138.145 133.257 141.846C133.272 141.907 133.267 141.971 133.243 142.029C133.219 142.086 133.177 142.135 133.124 142.168C133.071 142.201 133.009 142.216 132.947 142.212C132.884 142.208 132.825 142.184 132.777 142.144C132.017 141.362 131.08 140.772 130.046 140.425" stroke="#7F7F7F" stroke-width="0.75" stroke-linecap="round" stroke-linejoin="round"/>
<path d="M108.048 152.79C108.048 151.23 101.328 150.39 103.128 148.95C104.928 147.51 109.008 152.19 109.008 152.19" stroke="#7F7F7F" stroke-width="0.75" stroke-linecap="round" stroke-linejoin="round"/>
<path d="M141.067 159.03C141.067 157.245 134.644 156.27 134.966 154.35C135.287 152.43 139.367 156.213 139.367 156.213" stroke="#7F7F7F" stroke-width="0.75" stroke-linecap="round" stroke-linejoin="round"/>
<path d="M108.297 183.981L109.003 185.613C109.042 185.703 109.111 185.777 109.199 185.822C109.286 185.866 109.387 185.879 109.483 185.858C111.033 185.507 117.504 183.981 119.774 182.349C119.84 182.3 119.89 182.233 119.917 182.156C119.945 182.079 119.948 181.996 119.928 181.917L119.486 180.098C119.471 180.035 119.442 179.976 119.401 179.927C119.359 179.877 119.307 179.838 119.248 179.812C119.189 179.785 119.125 179.773 119.06 179.776C118.996 179.779 118.933 179.797 118.876 179.829C117.854 180.386 115.008 181.715 108.58 183.405C108.522 183.421 108.467 183.449 108.42 183.487C108.373 183.526 108.335 183.574 108.308 183.629C108.282 183.683 108.267 183.743 108.265 183.804C108.263 183.864 108.274 183.925 108.297 183.981Z" fill="#999999" stroke="#263238" stroke-linecap="round" stroke-linejoin="round"/>
<path d="M133.219 182.637C133.211 182.58 133.218 182.523 133.238 182.47C133.259 182.417 133.292 182.37 133.336 182.334C133.38 182.298 133.433 182.273 133.489 182.263C133.545 182.253 133.602 182.258 133.656 182.277C134.436 182.52 135.27 182.532 136.056 182.31C137.837 181.907 142.93 180.294 144.446 179.81C144.496 179.794 144.549 179.79 144.601 179.798C144.652 179.807 144.701 179.827 144.743 179.858C144.785 179.889 144.819 179.929 144.843 179.976C144.866 180.023 144.879 180.074 144.878 180.126V182.248C144.879 182.312 144.861 182.375 144.826 182.429C144.791 182.483 144.741 182.525 144.682 182.55C143.491 183.083 137.112 185.814 133.776 185.07C133.711 185.055 133.652 185.02 133.607 184.97C133.563 184.921 133.534 184.858 133.526 184.792L133.219 182.637Z" fill="#999999" stroke="#263238" stroke-linecap="round" stroke-linejoin="round"/>
<path d="M138.355 138.189C138.308 138.852 138.066 139.487 137.659 140.013C136.247 141.765 130.041 144.621 127.262 148.173" stroke="#7F7F7F" stroke-linecap="round" stroke-linejoin="round"/>
<path d="M138.053 135.789C138.16 136.142 138.242 136.503 138.298 136.869" stroke="#7F7F7F" stroke-linecap="round" stroke-linejoin="round"/>
<path d="M101.294 192.63C101.686 193.344 101.969 194.113 102.134 194.91H119.467C119.531 194.155 119.873 193.45 120.427 192.933" stroke="#263238" stroke-linecap="round" stroke-linejoin="round"/>
<path d="M131.414 192.63C131.414 192.63 133.814 192.813 134.712 194.91H143.774C144.048 194.284 144.21 193.615 144.254 192.933" stroke="#263238" stroke-linecap="round" stroke-linejoin="round"/>
<path d="M117.206 106.989C117.427 107.834 117.657 108.674 117.887 109.494C120.287 118.134 123.407 134.574 123.407 134.574C138.767 137.814 154.967 134.574 154.967 134.574C155.054 130.994 154.617 126.266 154.132 121.298C156.647 120.602 158.452 118.278 158.567 114.414C158.687 109.734 157.838 101.31 157.367 97.3743C156.95 93.9135 157.247 91.8543 151.886 89.2143C149.198 87.6639 144.734 86.9295 139.247 86.1951C128.447 84.7551 120.652 86.9391 117.887 88.1151C115.694 87.5391 115.084 90.1119 115.084 90.1119C113.87 89.1951 112.459 93.0831 112.459 93.0831C108.907 97.6143 106.113 105.246 105.182 107.963C104.976 108.557 104.598 109.077 104.097 109.456C101.577 111.376 102.979 113.752 102.979 113.752L108.139 115.331C108.139 115.331 110.639 115.984 112.55 112.696C114.143 109.95 116.755 105.29 117.206 106.989Z" fill="#B455FF"/>
<mask id="mask0_807_426" style="mask-type:luminance" maskUnits="userSpaceOnUse" x="102" y="85" width="57" height="52">
<path d="M117.206 106.989C117.427 107.834 117.657 108.674 117.887 109.494C120.287 118.134 123.407 134.574 123.407 134.574C138.767 137.814 154.967 134.574 154.967 134.574C155.054 130.994 154.617 126.266 154.132 121.298C156.647 120.602 158.452 118.278 158.567 114.414C158.687 109.734 157.838 101.31 157.367 97.3743C156.95 93.9135 157.247 91.8543 151.886 89.2143C149.198 87.6639 144.734 86.9295 139.247 86.1951C128.447 84.7551 120.652 86.9391 117.887 88.1151C115.694 87.5391 115.084 90.1119 115.084 90.1119C113.87 89.1951 112.459 93.0831 112.459 93.0831C108.907 97.6143 106.113 105.246 105.182 107.963C104.976 108.557 104.598 109.077 104.097 109.456C101.577 111.376 102.979 113.752 102.979 113.752L108.139 115.331C108.139 115.331 110.639 115.984 112.55 112.696C114.143 109.95 116.755 105.29 117.206 106.989Z" fill="white"/>
</mask>
<g mask="url(#mask0_807_426)">
<path opacity="0.3" d="M109.089 113.166C109.089 113.166 108.969 110.766 107.049 110.349C105.129 109.931 107.587 109.211 109.089 109.571C110.592 109.931 110.241 108.611 111.528 106.451C112.814 104.291 113.448 102.582 114.533 103.825C115.617 105.069 116.745 105.265 117.206 106.965C117.667 108.664 115.387 112.725 115.387 112.725L111.806 115.504L109.987 116.521H107.275L106.344 114.174L109.089 113.166Z" fill="black"/>
</g>
<path d="M117.206 106.989C117.427 107.834 117.657 108.674 117.887 109.494C120.287 118.134 123.407 134.574 123.407 134.574C138.767 137.814 154.967 134.574 154.967 134.574C155.054 130.994 154.617 126.266 154.132 121.298C156.647 120.602 158.452 118.278 158.567 114.414C158.687 109.734 157.838 101.31 157.367 97.3743C156.95 93.9135 157.247 91.8543 151.886 89.2143C149.198 87.6639 144.734 86.9295 139.247 86.1951C128.447 84.7551 120.652 86.9391 117.887 88.1151C115.694 87.5391 115.084 90.1119 115.084 90.1119C113.87 89.1951 112.459 93.0831 112.459 93.0831C108.907 97.6143 106.113 105.246 105.182 107.963C104.976 108.557 104.598 109.077 104.097 109.456C101.577 111.376 102.979 113.752 102.979 113.752L108.139 115.331C108.139 115.331 110.639 115.984 112.55 112.696C114.143 109.95 116.755 105.29 117.206 106.989Z" stroke="#263238" stroke-linecap="round" stroke-linejoin="round"/>
<path opacity="0.3" d="M154.968 134.55C154.98 131.466 154.828 128.383 154.512 125.315C155.035 132.626 139.814 134.915 139.334 130.95C138.854 126.986 154.132 121.274 145.819 123.27C138.566 125.013 124.507 123.347 121.051 122.896C122.38 129.136 123.408 134.55 123.408 134.55C138.768 137.79 154.968 134.55 154.968 134.55Z" fill="black"/>
<path opacity="0.3" d="M147.988 97.8303C147.988 97.8303 145.814 104.19 145.818 107.55C145.823 110.91 139.727 113.166 139.713 113.166C142.982 112.504 146.159 111.626 147.676 111.184C147.937 111.11 148.165 110.947 148.319 110.724C148.473 110.501 148.545 110.23 148.521 109.96C148.134 105.929 147.956 101.88 147.988 97.8303Z" fill="black"/>
<path d="M115.195 96.2319C115.215 99.2288 115.756 102.199 116.793 105.011C116.823 105.094 116.826 105.183 116.802 105.268C116.777 105.352 116.727 105.426 116.657 105.48C116.588 105.533 116.503 105.563 116.415 105.565C116.327 105.567 116.241 105.541 116.169 105.491C115.344 104.901 114.177 103.701 113.126 101.282" stroke="#263238" stroke-width="0.75" stroke-linecap="round" stroke-linejoin="round"/>
<path d="M155.928 115.83C154.661 111.63 152.467 110.579 150.768 110.474C150.715 110.466 150.666 110.443 150.627 110.408C150.587 110.373 150.559 110.326 150.546 110.275C150.532 110.224 150.535 110.17 150.552 110.12C150.569 110.07 150.601 110.026 150.643 109.994C151.632 109.461 153.557 109.034 155.923 111.654" stroke="#263238" stroke-width="0.75" stroke-linecap="round" stroke-linejoin="round"/>
<path d="M131.578 103.811C131.557 103.988 131.473 104.151 131.34 104.269C131.207 104.387 131.035 104.453 130.858 104.453C130.68 104.453 130.508 104.387 130.375 104.269C130.243 104.151 130.158 103.988 130.138 103.811C130.126 103.71 130.136 103.607 130.167 103.509C130.197 103.412 130.248 103.322 130.316 103.246C130.384 103.169 130.468 103.108 130.561 103.066C130.654 103.025 130.755 103.003 130.858 103.003C130.96 103.003 131.061 103.025 131.154 103.066C131.247 103.108 131.331 103.169 131.399 103.246C131.467 103.322 131.518 103.412 131.549 103.509C131.579 103.607 131.589 103.71 131.578 103.811Z" fill="#999999" stroke="#263238" stroke-width="0.75" stroke-linecap="round" stroke-linejoin="round"/>
<path d="M132.551 111.981C132.551 112.123 132.509 112.262 132.43 112.381C132.351 112.499 132.238 112.591 132.107 112.646C131.975 112.7 131.831 112.715 131.691 112.687C131.551 112.659 131.423 112.591 131.322 112.49C131.222 112.389 131.153 112.261 131.125 112.121C131.097 111.982 131.112 111.837 131.166 111.705C131.221 111.574 131.313 111.461 131.431 111.382C131.55 111.303 131.689 111.261 131.831 111.261C132.022 111.261 132.205 111.337 132.34 111.472C132.475 111.607 132.551 111.79 132.551 111.981Z" fill="#999999" stroke="#263238" stroke-width="0.75" stroke-linecap="round" stroke-linejoin="round"/>
<path d="M134.966 131.67C134.967 131.814 134.925 131.954 134.846 132.074C134.767 132.194 134.654 132.288 134.522 132.343C134.39 132.399 134.244 132.414 134.103 132.387C133.962 132.359 133.832 132.29 133.731 132.189C133.629 132.088 133.559 131.959 133.531 131.818C133.503 131.678 133.517 131.532 133.571 131.399C133.626 131.266 133.719 131.153 133.838 131.073C133.958 130.993 134.098 130.95 134.241 130.95C134.433 130.95 134.616 131.026 134.752 131.161C134.888 131.296 134.965 131.479 134.966 131.67Z" fill="#999999" stroke="#263238" stroke-linecap="round" stroke-linejoin="round"/>
<path d="M121.181 117.333C121.181 117.333 118.824 119.579 119.947 119.618C121.07 119.656 122.486 118.11 123.787 117.933C125.088 117.755 122.985 116.973 122.985 116.973L121.181 117.333Z" fill="white" stroke="#263238" stroke-linecap="round" stroke-linejoin="round"/>
<path d="M134.942 114.803C134.837 114.709 134.713 114.637 134.578 114.592C134.443 114.547 134.301 114.531 134.16 114.544C133.008 114.64 129.696 114.89 128.448 114.813C126.23 114.674 119.697 113.291 119.697 113.291C119.547 113.266 119.393 113.274 119.246 113.315L115.2 114.506C115.052 114.548 114.917 114.626 114.806 114.731L112.358 116.978C112.278 117.053 112.21 117.14 112.157 117.237L111.648 118.168C111.543 118.359 111.503 118.58 111.535 118.795C111.567 119.011 111.669 119.211 111.825 119.363L115.867 119.469C116.117 119.481 116.361 119.394 116.549 119.229L117.749 118.202C117.829 118.132 117.898 118.051 117.955 117.962C118.248 117.482 119.395 115.898 121.171 116.042C121.171 116.042 117.331 118.082 118.056 118.922C118.781 119.762 121.718 117.362 122.678 117.602C123.638 117.842 123.701 120.198 128.918 119.344C129.151 119.305 129.391 119.316 129.619 119.378L134.371 120.707C134.512 120.746 134.659 120.757 134.804 120.738C134.949 120.72 135.089 120.672 135.216 120.599C135.342 120.526 135.453 120.428 135.541 120.311C135.629 120.195 135.693 120.062 135.729 119.92C136.099 118.557 136.425 116.157 134.942 114.803Z" fill="white" stroke="#263238" stroke-linecap="round" stroke-linejoin="round"/>
<path d="M120.264 114.15L119.246 114.323C118.75 114.407 118.287 114.626 117.907 114.957L116.827 115.883C116.643 116.049 116.482 116.237 116.347 116.445L115.651 117.506C115.576 117.623 115.49 117.734 115.397 117.837C114.984 118.317 113.846 119.646 115.075 119.464" fill="white"/>
<path d="M120.264 114.15L119.246 114.323C118.75 114.407 118.287 114.626 117.907 114.957L116.827 115.883C116.643 116.049 116.482 116.237 116.347 116.445L115.651 117.506C115.576 117.623 115.49 117.734 115.397 117.837C114.984 118.317 113.846 119.646 115.075 119.464" stroke="#263238" stroke-linecap="round" stroke-linejoin="round"/>
<path d="M117.398 114.51L116.347 114.798C116.018 114.879 115.717 115.044 115.473 115.278L114.652 116.066C114.572 116.137 114.499 116.218 114.436 116.306L113.088 118.096C113.088 118.096 112.368 119.363 113.088 119.387" fill="white"/>
<path d="M117.398 114.51L116.347 114.798C116.018 114.879 115.717 115.044 115.473 115.278L114.652 116.066C114.572 116.137 114.499 116.218 114.436 116.306L113.088 118.096C113.088 118.096 112.368 119.363 113.088 119.387" stroke="#263238" stroke-linecap="round" stroke-linejoin="round"/>
<path d="M148.027 96.8127C147.925 101.201 148.086 105.591 148.507 109.96C148.531 110.23 148.46 110.501 148.305 110.724C148.151 110.947 147.924 111.11 147.663 111.184C143.846 112.312 139.959 113.186 136.027 113.8" stroke="#263238" stroke-linecap="round" stroke-linejoin="round"/>
<path d="M148.257 93.8368C148.195 94.3168 148.142 94.84 148.104 95.3728" stroke="#263238" stroke-width="0.75" stroke-linecap="round" stroke-linejoin="round"/>
<path d="M149.865 89.344C149.318 89.824 148.905 90.6928 148.622 91.8448" stroke="#263238" stroke-width="0.75" stroke-linecap="round" stroke-linejoin="round"/>
<path d="M125.832 86.4928C125.832 86.4928 126.134 85.5328 127.752 84.9904C129.369 84.448 134.981 83.5888 137.865 84.9904C140.75 86.392 135.225 94.0192 135.225 94.0192L132.667 97.5616L130.387 99.2704L129.369 96.232L128.049 94.8592C128.049 94.8592 125.198 92.5216 125.438 90.2128C125.678 87.904 125.832 86.4928 125.832 86.4928Z" fill="white"/>
<path d="M139.997 86.2911C139.546 84.7119 137.487 84.2703 137.487 84.2703C127.647 82.5903 125.568 86.1903 125.568 86.1903C124.361 89.442 124.361 93.0186 125.568 96.2703C125.568 96.2703 128.367 95.1087 128.847 96.2703C129.327 97.4319 130.205 99.9087 130.205 99.9087C131.541 99.1559 132.706 98.1344 133.627 96.9087C135.149 94.9071 138.72 96.9087 138.72 96.9087C141.034 92.9103 139.997 86.2911 139.997 86.2911ZM137.597 86.1759C133.786 98.1375 130.426 98.6559 130.426 98.6559C129.307 94.2591 128.347 95.2191 126.826 92.4687C125.606 90.2607 126.019 87.4671 126.23 86.4447C126.255 86.3227 126.307 86.2077 126.382 86.1081C126.456 86.0085 126.552 85.9267 126.662 85.8687C130.445 83.9487 135.072 84.6543 136.978 85.0719C137.096 85.0963 137.207 85.1453 137.305 85.2158C137.402 85.2863 137.484 85.3766 137.544 85.4809C137.605 85.5851 137.642 85.7009 137.654 85.8207C137.667 85.9405 137.654 86.0615 137.616 86.1759H137.597Z" fill="#B455FF"/>
<mask id="mask1_807_426" style="mask-type:luminance" maskUnits="userSpaceOnUse" x="124" y="83" width="17" height="17">
<path d="M139.997 86.2911C139.546 84.7119 137.487 84.2703 137.487 84.2703C127.647 82.5903 125.568 86.1903 125.568 86.1903C124.361 89.442 124.361 93.0186 125.568 96.2703C125.568 96.2703 128.367 95.1087 128.847 96.2703C129.327 97.4319 130.205 99.9087 130.205 99.9087C131.541 99.1559 132.706 98.1344 133.627 96.9087C135.149 94.9071 138.72 96.9087 138.72 96.9087C141.034 92.9103 139.997 86.2911 139.997 86.2911ZM137.597 86.1759C133.786 98.1375 130.426 98.6559 130.426 98.6559C129.307 94.2591 128.347 95.2191 126.826 92.4687C125.606 90.2607 126.019 87.4671 126.23 86.4447C126.255 86.3227 126.307 86.2077 126.382 86.1081C126.456 86.0085 126.552 85.9267 126.662 85.8687C130.445 83.9487 135.072 84.6543 136.978 85.0719C137.096 85.0963 137.207 85.1453 137.305 85.2158C137.402 85.2863 137.484 85.3766 137.544 85.4809C137.605 85.5851 137.642 85.7009 137.654 85.8207C137.667 85.9405 137.654 86.0615 137.616 86.1759H137.597Z" fill="white"/>
</mask>
<g mask="url(#mask1_807_426)">
<path opacity="0.4" d="M139.997 86.2911C139.546 84.7119 137.487 84.2703 137.487 84.2703C127.647 82.5903 125.568 86.1903 125.568 86.1903C124.361 89.442 124.361 93.0186 125.568 96.2703C125.568 96.2703 128.367 95.1087 128.847 96.2703C129.327 97.4319 130.205 99.9087 130.205 99.9087C131.541 99.1559 132.706 98.1344 133.627 96.9087C135.149 94.9071 138.72 96.9087 138.72 96.9087C141.034 92.9103 139.997 86.2911 139.997 86.2911ZM137.597 86.1759C133.786 98.1375 130.426 98.6559 130.426 98.6559C129.307 94.2591 128.347 95.2191 126.826 92.4687C125.606 90.2607 126.019 87.4671 126.23 86.4447C126.255 86.3227 126.307 86.2077 126.382 86.1081C126.456 86.0085 126.552 85.9267 126.662 85.8687C130.445 83.9487 135.072 84.6543 136.978 85.0719C137.096 85.0963 137.207 85.1453 137.305 85.2158C137.402 85.2863 137.484 85.3766 137.544 85.4809C137.605 85.5851 137.642 85.7009 137.654 85.8207C137.667 85.9405 137.654 86.0615 137.616 86.1759H137.597Z" fill="white"/>
</g>
<path d="M139.997 86.2911C139.546 84.7119 137.487 84.2703 137.487 84.2703C127.647 82.5903 125.568 86.1903 125.568 86.1903C124.361 89.442 124.361 93.0186 125.568 96.2703C125.568 96.2703 128.367 95.1087 128.847 96.2703C129.327 97.4319 130.205 99.9087 130.205 99.9087C131.541 99.1559 132.706 98.1344 133.627 96.9087C135.149 94.9071 138.72 96.9087 138.72 96.9087C141.034 92.9103 139.997 86.2911 139.997 86.2911ZM137.597 86.1759C133.786 98.1375 130.426 98.6559 130.426 98.6559C129.307 94.2591 128.347 95.2191 126.826 92.4687C125.606 90.2607 126.019 87.4671 126.23 86.4447C126.255 86.3227 126.307 86.2077 126.382 86.1081C126.456 86.0085 126.552 85.9267 126.662 85.8687C130.445 83.9487 135.072 84.6543 136.978 85.0719C137.096 85.0963 137.207 85.1453 137.305 85.2158C137.402 85.2863 137.484 85.3766 137.544 85.4809C137.605 85.5851 137.642 85.7009 137.654 85.8207C137.667 85.9405 137.654 86.0615 137.616 86.1759H137.597Z" stroke="#263238" stroke-linecap="round" stroke-linejoin="round"/>
<path d="M123.931 68.0127C123.931 68.0127 115.449 69.7119 120.119 75.2127C125.299 81.3423 123.931 68.0127 123.931 68.0127Z" fill="#263238" stroke="#263238" stroke-linecap="round" stroke-linejoin="round"/>
<path d="M120.586 81.4719C120.586 81.4719 118.57 73.3119 122.41 69.3903C126.25 65.4687 130.411 64.6719 133.531 66.5919C136.651 68.5119 137.947 73.3119 137.467 75.7887C136.987 78.2655 137.218 87.1455 132.941 90.8271C128.664 94.5087 126.034 93.6015 123.206 88.5855C121.33 85.2975 120.442 84.3519 120.586 81.4719Z" fill="white" stroke="#263238" stroke-linecap="round" stroke-linejoin="round"/>
<path d="M126 65.9999C126 65.9999 120.31 65.2615 117.239 70.8052C114.462 75.8141 119 73.4999 119 73.4999C119 73.4999 115.735 79.0971 118 79.4999C120.264 79.9027 120.729 76.3864 125 73.9999C125 73.9999 127 73 129.5 73C131.671 74.0799 131.433 73.7402 133 73.9999C133 73.9999 132.5 76.4971 133.5 79C133.5 79 135.64 82.4212 137.5 81.5C138.5 77 136.436 84.9749 136.5 80.5029C136.563 76.0309 138.628 71.3536 135.712 67.2387C132.797 63.1238 128.655 63.6756 126 65.9999Z" fill="#263238" stroke="#263238" stroke-width="0.889063" stroke-linecap="round" stroke-linejoin="round"/>
<path d="M135 78.8447C135 78.8447 135.785 74.6371 137.965 75.0253C140.144 75.4136 138.588 81.6256 136.021 80.9485" fill="white"/>
<path d="M135 78.8447C135 78.8447 135.785 74.6371 137.965 75.0253C140.144 75.4136 138.588 81.6256 136.021 80.9485" stroke="#263238" stroke-linecap="round" stroke-linejoin="round"/>
<path d="M124.426 83C124.426 83 123.849 85.3823 124.038 85.79C124.227 86.1976 126 85.8864 126 85.8864" fill="white"/>
<path d="M124.426 83C124.426 83 123.849 85.3823 124.038 85.79C124.227 86.1976 126 85.8864 126 85.8864" stroke="#263238" stroke-width="0.8" stroke-linecap="round" stroke-linejoin="round"/>
<path d="M126.47 87.6927C126.47 87.6927 128.62 88.5423 130.516 85.7151L126.47 87.6927Z" fill="white"/>
<path d="M126.47 87.6927C126.47 87.6927 128.62 88.5423 130.516 85.7151" stroke="#263238" stroke-linecap="round" stroke-linejoin="round"/>
<path d="M120.139 79.2639C120.139 79.2639 120.988 78.1839 122.03 78.7023L120.139 79.2639Z" fill="white"/>
<path d="M120.139 79.2639C120.139 79.2639 120.988 78.1839 122.03 78.7023" stroke="#263238" stroke-linecap="round" stroke-linejoin="round"/>
<path d="M129.933 78.7862C129.933 78.7862 128.44 77.3462 127 78.3638L129.933 78.7862Z" fill="white"/>
<path d="M129.933 78.7862C129.933 78.7862 128.44 77.3462 127 78.3638" stroke="#263238" stroke-linecap="round" stroke-linejoin="round"/>
<path d="M129 81C129 81 127.982 79.1685 127 80.4628L129 81Z" fill="white"/>
<path d="M129 81C129 81 127.982 79.1685 127 80.4628" stroke="#263238" stroke-width="0.7" stroke-linecap="round" stroke-linejoin="round"/>
<path d="M123 81C123 81 121.982 79.1685 121 80.4628" stroke="#263238" stroke-width="0.7" stroke-linecap="round" stroke-linejoin="round"/>
<path opacity="0.3" d="M136.919 120.525C136.832 120.598 136.769 120.696 136.739 120.807C136.709 120.917 136.714 121.034 136.753 121.141C136.792 121.248 136.862 121.341 136.956 121.407C137.049 121.473 137.16 121.508 137.275 121.509C140.519 121.509 149.275 121.547 152.635 121.35C156.835 121.11 153.628 116.55 150.235 118.288C147.158 119.896 140.611 117.218 136.919 120.525Z" fill="black"/>
<path d="M100.368 116.022C100.368 116.022 102.331 110.795 107.256 111.626C112.181 112.456 108.418 116.579 106.047 116.944C106.047 116.944 105.687 115.509 100.368 116.022Z" fill="white" stroke="#263238" stroke-linecap="round" stroke-linejoin="round"/>
<path d="M96.1869 118.989C95.5389 119.637 93.9789 119.694 95.0301 118.288C95.89 117.157 97.056 116.295 98.3901 115.806C100.723 114.765 101.635 114.976 103.747 114.51C105.859 114.045 106.257 114.909 106.987 115.307C108.729 116.267 109.147 116.43 109.589 117.39C110.03 118.35 110.51 119.598 109.147 119.598C107.909 119.598 107.827 117.549 106.627 117.63C105.427 117.712 104.827 119.598 103.987 119.598H103.67C102.95 119.598 102.912 118.998 103.349 118.057C103.785 117.117 104.27 116.267 104.27 116.267C103.558 116.642 102.988 117.241 102.648 117.971C102.072 119.195 101.966 119.709 100.905 119.709C99.8445 119.709 99.9453 118.921 100.973 117.184C100.362 117.549 99.858 118.067 99.5085 118.686C98.9901 119.646 98.7165 119.598 98.0397 119.598C97.1469 119.598 97.2093 118.129 98.7885 117.169C98.7981 117.169 98.4477 116.737 96.1869 118.989Z" fill="white" stroke="#263238" stroke-linecap="round" stroke-linejoin="round"/>
<path d="M102.369 115.48C102.369 115.48 101.75 115.451 101.356 116.498L102.369 115.48Z" fill="white"/>
<path d="M102.369 115.48C102.369 115.48 101.75 115.451 101.356 116.498" stroke="#263238" stroke-width="0.75" stroke-linecap="round" stroke-linejoin="round"/>
<path d="M181.243 70.2878C184.343 72.7235 187.294 75.3426 190.08 78.131" stroke="#263238" stroke-width="0.75" stroke-linecap="round" stroke-linejoin="round"/>
<path d="M177.893 67.7679C178.478 68.1903 179.064 68.6175 179.64 69.0543" stroke="#263238" stroke-width="0.75" stroke-linecap="round" stroke-linejoin="round"/>
<path d="M174.547 65.4688C175.148 65.8623 175.747 66.2656 176.342 66.6784" stroke="#263238" stroke-width="0.75" stroke-linecap="round" stroke-linejoin="round"/>
<path d="M149.99 53.8527C157.939 56.3251 165.537 59.808 172.598 64.2159" stroke="#263238" stroke-width="0.75" stroke-linecap="round" stroke-linejoin="round"/>
<path d="M144.749 52.3743C145.709 52.6207 146.677 52.8799 147.653 53.1519" stroke="#263238" stroke-width="0.75" stroke-linecap="round" stroke-linejoin="round"/>
<path d="M139.354 51.1791C140.41 51.3807 141.462 51.6015 142.512 51.8415" stroke="#263238" stroke-width="0.75" stroke-linecap="round" stroke-linejoin="round"/>
<path d="M134.549 50.3774C135.461 50.5086 136.37 50.6494 137.275 50.7998" stroke="#263238" stroke-width="0.75" stroke-linecap="round" stroke-linejoin="round"/>
<path d="M105.6 50.5695C114.496 49.1839 123.54 49.0224 132.48 50.0895" stroke="#263238" stroke-width="0.75" stroke-linecap="round" stroke-linejoin="round"/>
<path d="M101.64 51.2655C102.456 51.1071 103.276 50.9535 104.092 50.8143" stroke="#263238" stroke-width="0.75" stroke-linecap="round" stroke-linejoin="round"/>
<path d="M97.7949 52.1055C98.6157 51.9087 99.4317 51.7263 100.257 51.5535" stroke="#263238" stroke-width="0.75" stroke-linecap="round" stroke-linejoin="round"/>
<path d="M93.0723 53.363C93.9075 53.1182 94.7427 52.883 95.5827 52.6622" stroke="#263238" stroke-width="0.75" stroke-linecap="round" stroke-linejoin="round"/>
<path d="M64.5068 67.0959C72.4545 61.5245 81.1913 57.1739 90.4268 54.1887" stroke="#263238" stroke-width="0.75" stroke-linecap="round" stroke-linejoin="round"/>
<path d="M60.667 69.9423C61.4158 69.3631 62.1726 68.7935 62.9374 68.2335" stroke="#263238" stroke-width="0.75" stroke-linecap="round" stroke-linejoin="round"/>
<path d="M56.7793 73.1103C57.6001 72.3999 58.4353 71.7087 59.2753 71.0319" stroke="#263238" stroke-width="0.75" stroke-linecap="round" stroke-linejoin="round"/>
<path d="M51.374 78.1311C52.5004 77.0047 53.646 75.9119 54.8108 74.8527" stroke="#263238" stroke-width="0.75" stroke-linecap="round" stroke-linejoin="round"/>
<path d="M88.5931 63.3734C90.1227 56.9577 86.1617 50.5166 79.7459 48.987C73.3302 47.4574 66.8891 51.4184 65.3595 57.8341C63.8299 64.2499 67.7909 70.6909 74.2066 72.2206C80.6224 73.7502 87.0634 69.7892 88.5931 63.3734Z" fill="#B455FF"/>
<mask id="mask2_807_426" style="mask-type:luminance" maskUnits="userSpaceOnUse" x="65" y="48" width="24" height="25">
<path d="M88.5931 63.3736C90.1227 56.9578 86.1617 50.5168 79.7459 48.9871C73.3302 47.4575 66.8891 51.4185 65.3595 57.8343C63.8299 64.25 67.7909 70.6911 74.2066 72.2207C80.6224 73.7503 87.0634 69.7893 88.5931 63.3736Z" fill="white"/>
</mask>
<g mask="url(#mask2_807_426)">
<path opacity="0.3" d="M88.5931 63.3736C90.1227 56.9578 86.1617 50.5168 79.7459 48.9871C73.3302 47.4575 66.8891 51.4185 65.3595 57.8343C63.8299 64.25 67.7909 70.6911 74.2066 72.2207C80.6224 73.7503 87.0634 69.7893 88.5931 63.3736Z" fill="white"/>
</g>
<path d="M88.5931 63.3734C90.1227 56.9577 86.1617 50.5166 79.7459 48.987C73.3302 47.4574 66.8891 51.4184 65.3595 57.8341C63.8299 64.2499 67.7909 70.6909 74.2066 72.2206C80.6224 73.7502 87.0634 69.7892 88.5931 63.3734Z" stroke="#263238" stroke-width="0.75" stroke-linecap="round" stroke-linejoin="round"/>
<path d="M71.2275 65.2911V62.3007C71.2275 61.5519 71.0163 61.3407 70.2051 61.3407V59.8767C71.0163 59.8767 71.2275 59.6511 71.2275 58.9167V55.9263C71.2062 55.6839 71.2383 55.4399 71.3215 55.2112C71.4047 54.9826 71.5369 54.775 71.709 54.603C71.881 54.4309 72.0886 54.2987 72.3172 54.2155C72.5459 54.1323 72.7899 54.1002 73.0323 54.1215H73.9443V55.5615H73.6803C73.1139 55.5615 72.8211 55.8207 72.8211 56.7183V59.1519C72.8536 59.4708 72.7715 59.7909 72.5894 60.0548C72.4073 60.3187 72.1372 60.5091 71.8275 60.5919V60.6255C72.1372 60.7083 72.4073 60.8987 72.5894 61.1625C72.7715 61.4264 72.8536 61.7465 72.8211 62.0655V64.5039C72.8211 65.3967 73.1139 65.6559 73.6803 65.6559H73.9443V67.0959H73.0323C72.7899 67.1171 72.5459 67.0851 72.3172 67.0019C72.0886 66.9187 71.881 66.7864 71.709 66.6144C71.5369 66.4424 71.4047 66.2348 71.3215 66.0061C71.2383 65.7775 71.2062 65.5334 71.2275 65.2911Z" fill="white" stroke="#263238" stroke-width="0.75" stroke-linecap="round" stroke-linejoin="round"/>
<path d="M79.9775 65.6318H80.2367C80.8079 65.6318 81.1007 65.3726 81.1007 64.4798V62.0414C81.0689 61.7233 81.1508 61.4042 81.3318 61.1406C81.5128 60.877 81.7812 60.686 82.0895 60.6014V60.5678C81.7807 60.4841 81.5117 60.2933 81.3305 60.0295C81.1494 59.7657 81.068 59.4461 81.1007 59.1278V56.6942C81.1007 55.7966 80.8079 55.5374 80.2367 55.5374H79.9775V54.0974H80.8895C81.1319 54.0762 81.376 54.1083 81.6046 54.1914C81.8332 54.2746 82.0408 54.4069 82.2129 54.5789C82.3849 54.7509 82.5172 54.9586 82.6003 55.1872C82.6835 55.4158 82.7156 55.6599 82.6943 55.9022V58.8926C82.6943 59.6414 82.9055 59.8526 83.7167 59.8526V61.3166C82.9055 61.3166 82.6943 61.5422 82.6943 62.2766V65.267C82.7156 65.5094 82.6835 65.7535 82.6003 65.9821C82.5172 66.2107 82.3849 66.4183 82.2129 66.5904C82.0408 66.7624 81.8332 66.8947 81.6046 66.9778C81.376 67.061 81.1319 67.0931 80.8895 67.0718H79.9775V65.6318Z" fill="white" stroke="#263238" stroke-width="0.75" stroke-linecap="round" stroke-linejoin="round"/>
<path d="M53.8319 75.8414H46.9439C43.7734 75.8414 41.2031 78.4117 41.2031 81.5822V88.4702C41.2031 91.6408 43.7734 94.211 46.9439 94.211H53.8319C57.0025 94.211 59.5727 91.6408 59.5727 88.4702V81.5822C59.5727 78.4117 57.0025 75.8414 53.8319 75.8414Z" fill="#D966C1" stroke="#263238" stroke-width="0.75" stroke-linecap="round" stroke-linejoin="round"/>
<path d="M43.7275 85.4703V84.5823L47.3995 82.9983V83.9583L44.8699 85.0287L47.3995 86.0943V87.0543L43.7275 85.4703Z" fill="white" stroke="#263238" stroke-width="0.75" stroke-linecap="round" stroke-linejoin="round"/>
<path d="M51.4702 80.8287H52.6126L49.3006 89.2287H48.1582L51.4702 80.8287Z" fill="white" stroke="#263238" stroke-width="0.75" stroke-linecap="round" stroke-linejoin="round"/>
<path d="M53.3711 86.0942L55.9007 85.0286L53.3711 83.9486V82.9886L57.0431 84.5726V85.4606L53.3711 87.0446V86.0942Z" fill="white" stroke="#263238" stroke-width="0.75" stroke-linecap="round" stroke-linejoin="round"/>
<path d="M171.611 60.2127C172.892 54.7325 169.488 49.2512 164.008 47.9699C158.528 46.6885 153.047 50.0924 151.765 55.5726C150.484 61.0528 153.888 66.5341 159.368 67.8154C164.848 69.0968 170.33 65.6929 171.611 60.2127Z" fill="#B455FF"/>
<mask id="mask3_807_426" style="mask-type:luminance" maskUnits="userSpaceOnUse" x="151" y="47" width="21" height="22">
<path d="M171.611 60.2127C172.892 54.7325 169.488 49.2512 164.008 47.9699C158.528 46.6885 153.047 50.0924 151.765 55.5726C150.484 61.0528 153.888 66.5341 159.368 67.8154C164.848 69.0968 170.33 65.6929 171.611 60.2127Z" fill="white"/>
</mask>
<g mask="url(#mask3_807_426)">
<path opacity="0.2" d="M171.611 60.2127C172.892 54.7325 169.488 49.2512 164.008 47.9699C158.528 46.6885 153.047 50.0924 151.765 55.5726C150.484 61.0528 153.888 66.5341 159.368 67.8154C164.848 69.0968 170.33 65.6929 171.611 60.2127Z" fill="black"/>
</g>
<path d="M171.611 60.2127C172.892 54.7325 169.488 49.2512 164.008 47.9699C158.528 46.6885 153.047 50.0924 151.765 55.5726C150.484 61.0528 153.888 66.5341 159.368 67.8154C164.848 69.0968 170.33 65.6929 171.611 60.2127Z" stroke="#263238" stroke-width="0.75" stroke-linecap="round" stroke-linejoin="round"/>
<path d="M155.386 60.0063V55.7823C155.386 54.5679 156.015 53.8623 157.205 53.8623C158.395 53.8623 159.024 54.5775 159.024 55.7823V56.6127H157.858V55.7055C157.858 55.1871 157.608 54.9759 157.239 54.9759C156.869 54.9759 156.624 55.1871 156.624 55.7055V60.0927C156.624 60.6111 156.869 60.8127 157.239 60.8127C157.608 60.8127 157.858 60.6111 157.858 60.0927V58.8927H159.024V60.0063C159.024 61.2159 158.395 61.9263 157.205 61.9263C156.015 61.9263 155.386 61.2159 155.386 60.0063Z" fill="white" stroke="#263238" stroke-width="0.75" stroke-linecap="round" stroke-linejoin="round"/>
<path d="M161.117 58.3311H159.609V57.4527H161.117V55.9407H161.99V57.4527H163.497V58.3311H161.99V59.8671H161.117V58.3311Z" fill="white" stroke="#263238" stroke-width="0.75" stroke-linecap="round" stroke-linejoin="round"/>
<path d="M165.61 58.3311H164.103V57.4527H165.61V55.9407H166.483V57.4527H167.991V58.3311H166.483V59.8671H165.61V58.3311Z" fill="white" stroke="#263238" stroke-width="0.75" stroke-linecap="round" stroke-linejoin="round"/>
<path d="M122.621 37.9839H113.41C109.805 37.9839 106.882 40.9066 106.882 44.5119V53.7231C106.882 57.3284 109.805 60.2511 113.41 60.2511H122.621C126.226 60.2511 129.149 57.3284 129.149 53.7231V44.5119C129.149 40.9066 126.226 37.9839 122.621 37.9839Z" fill="#D966C1" stroke="#263238" stroke-width="0.75" stroke-linecap="round" stroke-linejoin="round"/>
<path d="M111.321 51.4623V46.7727C111.321 45.4239 112.022 44.6271 113.342 44.6271C114.662 44.6271 115.387 45.4239 115.387 46.7727V47.6943H114.091V46.6815C114.091 46.1103 113.812 45.8751 113.404 45.8751C112.996 45.8751 112.718 46.1103 112.718 46.6815V51.5583C112.718 52.1343 112.992 52.3599 113.404 52.3599C113.817 52.3599 114.091 52.1343 114.091 51.5583V50.2239H115.387V51.4623C115.387 52.8063 114.686 53.6031 113.366 53.6031C112.046 53.6031 111.321 52.8063 111.321 51.4623Z" fill="white" stroke="#263238" stroke-width="0.75" stroke-linecap="round" stroke-linejoin="round"/>
<path d="M115.978 51.4094V50.9294H117.274V51.5294C117.274 52.1534 117.547 52.379 117.984 52.379C118.421 52.379 118.694 52.1534 118.694 51.5054C118.694 50.7806 118.421 50.3198 117.523 49.5326C116.376 48.5246 116.002 47.8142 116.002 46.8158C116.002 45.443 116.712 44.6462 118.046 44.6462C119.381 44.6462 120.043 45.443 120.043 46.8398V47.1998H118.747V46.7534C118.747 46.1294 118.498 45.8942 118.061 45.8942C117.624 45.8942 117.379 46.1294 117.379 46.7294C117.379 47.3294 117.662 47.8238 118.56 48.611C119.707 49.619 120.072 50.3198 120.072 51.4046C120.072 52.8446 119.347 53.6222 117.998 53.6222C116.65 53.6222 115.978 52.8062 115.978 51.4094Z" fill="white" stroke="#263238" stroke-width="0.75" stroke-linecap="round" stroke-linejoin="round"/>
<path d="M120.619 51.4094V50.9294H121.915V51.5294C121.915 52.1534 122.189 52.379 122.626 52.379C123.062 52.379 123.336 52.1534 123.336 51.5054C123.336 50.7806 123.062 50.3198 122.165 49.5326C121.018 48.5246 120.643 47.8142 120.643 46.8158C120.643 45.443 121.354 44.6462 122.688 44.6462C124.022 44.6462 124.685 45.443 124.685 46.8398V47.1998H123.384V46.7534C123.384 46.1294 123.134 45.8942 122.698 45.8942C122.261 45.8942 122.016 46.1294 122.016 46.7294C122.016 47.3294 122.299 47.8238 123.197 48.611C124.344 49.619 124.709 50.3198 124.709 51.4046C124.709 52.8446 123.984 53.6222 122.635 53.6222C121.286 53.6222 120.619 52.8062 120.619 51.4094Z" fill="white" stroke="#263238" stroke-width="0.75" stroke-linecap="round" stroke-linejoin="round"/>
<path d="M198.534 81.8124C199.836 76.3507 196.464 70.8676 191.002 69.5654C185.541 68.2633 180.057 71.6352 178.755 77.0969C177.453 82.5585 180.825 88.0417 186.287 89.3439C191.748 90.646 197.232 87.2741 198.534 81.8124Z" fill="#D966C1"/>
<mask id="mask4_807_426" style="mask-type:luminance" maskUnits="userSpaceOnUse" x="178" y="69" width="21" height="21">
<path d="M198.534 81.8124C199.836 76.3507 196.464 70.8676 191.002 69.5654C185.541 68.2633 180.057 71.6352 178.755 77.0969C177.453 82.5585 180.825 88.0417 186.287 89.3439C191.748 90.646 197.232 87.2741 198.534 81.8124Z" fill="white"/>
</mask>
<g mask="url(#mask4_807_426)">
<path opacity="0.3" d="M198.534 81.8124C199.836 76.3507 196.464 70.8676 191.002 69.5654C185.541 68.2633 180.057 71.6352 178.755 77.0969C177.453 82.5585 180.825 88.0417 186.287 89.3439C191.748 90.646 197.232 87.2741 198.534 81.8124Z" fill="white"/>
</g>
<path d="M198.534 81.8124C199.836 76.3507 196.464 70.8676 191.002 69.5654C185.541 68.2633 180.057 71.6352 178.755 77.0969C177.453 82.5585 180.825 88.0417 186.287 89.3439C191.748 90.646 197.232 87.2741 198.534 81.8124Z" stroke="#263238" stroke-width="0.75" stroke-linecap="round" stroke-linejoin="round"/>
<path d="M184.637 81.467V77.4302C184.637 76.2734 185.237 75.587 186.374 75.587C187.512 75.587 188.112 76.2734 188.112 77.4302V78.227H186.998V77.3582C186.998 76.8782 186.758 76.6574 186.408 76.6574C186.058 76.6574 185.818 76.8638 185.818 77.3582V81.5486C185.818 82.0286 186.053 82.235 186.408 82.235C186.763 82.235 186.998 82.043 186.998 81.5486V80.4014H188.112V81.4622C188.112 82.619 187.512 83.3054 186.374 83.3054C185.237 83.3054 184.637 82.6238 184.637 81.467Z" fill="white" stroke="#263238" stroke-width="0.75" stroke-linecap="round" stroke-linejoin="round"/>
<path d="M189.082 81.0687H188.554L188.64 80.2335H189.168L189.37 78.2703H188.827L188.914 77.4303H189.451L189.634 75.7023H190.565L190.383 77.4303H191.146L191.328 75.7023H192.264L192.082 77.4303H192.629L192.543 78.2703H191.995L191.789 80.2335H192.336L192.25 81.0687H191.707L191.482 83.2143H190.551L190.776 81.0687H190.013L189.787 83.2143H188.856L189.082 81.0687ZM190.863 80.2335L191.064 78.2703H190.306L190.099 80.2335H190.863Z" fill="white" stroke="#263238" stroke-width="0.75" stroke-linecap="round" stroke-linejoin="round"/>
<path d="M68.4571 196.514H66.6763L66.1963 125.829H68.4571V196.514Z" fill="#858585" stroke="#263238" stroke-linecap="round" stroke-linejoin="round"/>
<path d="M70.233 196.514H68.457V125.829H70.713L70.233 196.514Z" fill="#999999" stroke="#263238" stroke-linecap="round" stroke-linejoin="round"/>
<path d="M170.102 121.504H48.0811V125.834H170.102V121.504Z" fill="#263238" stroke="#263238" stroke-linecap="round" stroke-linejoin="round"/>
<path d="M195.6 121.504H168.278V125.834H195.6V121.504Z" fill="#858585" stroke="#263238" stroke-linecap="round" stroke-linejoin="round"/>
<path d="M175.637 125.829H54.3311V132.962H175.637V125.829Z" fill="#B455FF" stroke="#263238" stroke-miterlimit="10"/>
<path d="M175.636 132.966H189.763V125.834H175.636V132.966Z" fill="#B455FF"/>
<mask id="mask5_807_426" style="mask-type:luminance" maskUnits="userSpaceOnUse" x="175" y="125" width="15" height="8">
<path d="M175.636 132.966H189.763V125.834H175.636V132.966Z" fill="white"/>
</mask>
<g mask="url(#mask5_807_426)">
<path opacity="0.3" d="M175.636 132.966H189.763V125.834H175.636V132.966Z" fill="black"/>
</g>
<path d="M175.636 132.966H189.763V125.834H175.636V132.966Z" stroke="#263238" stroke-miterlimit="10"/>
<path d="M175.636 196.514H173.86L173.38 125.829H175.636V196.514Z" fill="#858585" stroke="#263238" stroke-linecap="round" stroke-linejoin="round"/>
<path d="M177.418 196.514H175.637V125.829H177.898L177.418 196.514Z" fill="#999999" stroke="#263238" stroke-linecap="round" stroke-linejoin="round"/>
<path d="M54.3311 196.514H52.5503L52.0703 125.829H54.3311V196.514Z" fill="#858585" stroke="#263238" stroke-linecap="round" stroke-linejoin="round"/>
<path d="M56.1071 196.514H54.3311V125.829H56.5871L56.1071 196.514Z" fill="#999999" stroke="#263238" stroke-linecap="round" stroke-linejoin="round"/>
<path d="M189.763 196.514H187.982L187.502 125.829H189.763V196.514Z" fill="#858585" stroke="#263238" stroke-linecap="round" stroke-linejoin="round"/>
<path d="M191.539 196.514H189.763V125.829H192.019L191.539 196.514Z" fill="#999999" stroke="#263238" stroke-linecap="round" stroke-linejoin="round"/>
<path d="M126.931 121.024H112.632C112.491 121.023 112.357 120.966 112.258 120.866C112.159 120.766 112.104 120.632 112.104 120.491V119.31L127.464 119.79V120.491C127.464 120.632 127.407 120.768 127.307 120.868C127.208 120.968 127.072 121.024 126.931 121.024Z" fill="#858585" stroke="#263238" stroke-linecap="round" stroke-linejoin="round"/>
<path d="M110.505 121.024H81.7576C81.5211 121.015 81.2931 120.933 81.1049 120.79C80.9167 120.646 80.7775 120.448 80.7064 120.222L74.5336 100.187C74.4873 100.07 74.4709 99.9436 74.4858 99.8187C74.5006 99.6939 74.5463 99.5747 74.6186 99.4718C74.691 99.369 74.7878 99.2858 74.9003 99.2297C75.0128 99.1735 75.1375 99.1463 75.2632 99.1503H104.01C104.246 99.1581 104.474 99.239 104.663 99.3816C104.851 99.5243 104.99 99.7219 105.062 99.9471L111.234 119.982C111.28 120.1 111.297 120.226 111.282 120.351C111.267 120.476 111.221 120.596 111.149 120.699C111.077 120.802 110.98 120.886 110.868 120.942C110.755 120.999 110.631 121.027 110.505 121.024Z" fill="#999999" stroke="#263238" stroke-linecap="round" stroke-linejoin="round"/>
<path d="M112.507 119.982L106.334 99.9471C106.263 99.7219 106.123 99.5243 105.935 99.3816C105.747 99.2389 105.519 99.1581 105.283 99.1503H104.011C104.247 99.1581 104.475 99.2389 104.663 99.3816C104.851 99.5243 104.991 99.7219 105.062 99.9471L111.235 119.982C111.281 120.099 111.297 120.226 111.282 120.351C111.267 120.476 111.222 120.596 111.149 120.699C111.077 120.802 110.98 120.886 110.868 120.942C110.756 120.999 110.631 121.027 110.505 121.024H111.796C111.921 121.024 112.043 120.993 112.153 120.935C112.263 120.877 112.357 120.793 112.427 120.691C112.497 120.588 112.541 120.47 112.555 120.346C112.568 120.223 112.552 120.098 112.507 119.982Z" fill="#858585" stroke="#263238" stroke-linecap="round" stroke-linejoin="round"/>
<path d="M94.6646 110.085C94.6999 110.308 94.6856 110.536 94.6229 110.753C94.5602 110.97 94.4505 111.171 94.3017 111.34C94.1529 111.51 93.9685 111.645 93.7616 111.736C93.5547 111.827 93.3304 111.871 93.1046 111.866C92.6148 111.853 92.1453 111.667 91.7796 111.341C91.4139 111.015 91.1759 110.57 91.1078 110.085C91.0725 109.862 91.0867 109.634 91.1494 109.417C91.2122 109.2 91.3219 109 91.4708 108.83C91.6198 108.661 91.8043 108.526 92.0111 108.436C92.218 108.346 92.4422 108.302 92.6678 108.309C93.1566 108.322 93.6251 108.507 93.9905 108.832C94.3558 109.157 94.5946 109.601 94.6646 110.085Z" fill="white" stroke="#263238" stroke-linecap="round" stroke-linejoin="round"/>
</svg>
