<svg width="154" height="174" viewBox="0 0 154 174" fill="none" xmlns="http://www.w3.org/2000/svg">
<path d="M111.004 5.73607C111.379 8.29857 111.379 8.29857 111.004 10.7361C110.344 11.3961 109.684 12.0561 109.004 12.7361C104.49 12.4942 100.749 11.6794 96.5043 10.1736C82.1659 5.73131 67.3544 9.31249 54.3168 15.9236C33.7541 27.6665 19.8961 46.5933 12.9691 69.0994C8.93267 85.3766 9.44283 102.544 18.0043 117.299C24.1733 126.971 32.2187 133.408 43.4965 136.236C44.324 136.401 45.1516 136.566 46.0043 136.736C46.8319 136.901 47.6594 137.066 48.5121 137.236C65.4669 139.665 81.3406 132.544 94.6918 122.674C95.4175 122.084 96.1433 121.495 96.891 120.888C99.0043 119.736 99.0043 119.736 101.711 119.99C104.004 120.736 104.004 120.736 105.004 121.736C105.504 124.424 105.504 124.424 105.004 127.736C94.5016 139.239 75.5859 147.115 60.2191 147.939C43.4033 148.248 29.7437 144.897 17.2582 133.056C4.19015 119.603 -0.156461 103.123 0.00427542 84.7361C1.19435 59.6151 13.656 35.712 32.0043 18.7361C50.7739 2.80041 86.5043 -6.76393 111.004 5.73607Z" fill="black"/>
<path d="M75.0043 19.7361C75.6918 22.5486 75.6918 22.5486 76.0043 25.7361C74.0292 28.2584 71.7829 29.4689 68.9418 30.8611C51.6355 40.2318 41.0464 57.5862 35.0043 75.7361C34.633 76.8363 34.633 76.8363 34.2543 77.9588C31.1637 89.0978 31.6253 102.459 37.0043 112.736C39.8305 117.112 42.9776 119.626 47.8793 121.424C58.9206 123.047 68.0937 118.939 77.0043 112.736C78.102 111.773 79.1876 110.796 80.2543 109.799C83.0043 107.736 83.0043 107.736 86.3793 107.924C87.6787 108.326 87.6787 108.326 89.0043 108.736C89.766 111.455 89.766 111.455 90.0043 114.736C83.52 123.848 71.5731 129.169 61.0043 131.736C50.6713 132.921 42.6333 131.69 34.0043 125.736C26.2098 119.304 23.0109 108.396 22.0043 98.7361C20.1181 78.4264 29.0046 56.4219 41.5043 40.8611C42.9877 39.1383 44.4863 37.4285 46.0043 35.7361C46.5676 35.0903 47.1309 34.4445 47.7113 33.7791C54.4395 26.527 64.79 17.4147 75.0043 19.7361Z" fill="black"/>
<path d="M120.317 19.2986C121.057 19.2763 121.798 19.2539 122.561 19.2309C128.019 19.2535 132.517 20.5319 137.004 23.7361C138.129 26.2986 138.129 26.2986 138.004 28.7361C137.344 29.7261 136.684 30.7161 136.004 31.7361C132.653 32.1169 130.318 31.8452 127.129 30.7361C120.369 28.5729 113.955 29.933 107.254 31.6111C106.513 31.7851 105.772 31.9591 105.008 32.1384C101.458 32.9989 98.1723 33.8853 95.0043 35.7361C96.5067 36.3896 96.5067 36.3896 98.0394 37.0564C115.741 44.9214 115.741 44.9214 119.004 52.7361C119.33 56.3177 119.279 58.9659 118.067 62.3611C111.39 70.05 101.602 71.2345 92.0043 72.7361C90.7629 72.9352 90.7629 72.9352 89.4965 73.1384C79.5912 74.4725 70.3329 74.5308 61.0043 70.7361C61.0043 69.4161 61.0043 68.0961 61.0043 66.7361C64.7798 65.0326 68.0787 64.3596 72.1957 63.99C73.9852 63.8169 73.9852 63.8169 75.8109 63.6404C78.2873 63.415 80.7639 63.191 83.2406 62.9685C92.119 62.1068 100.532 60.5601 109.004 57.7361C106.955 52.6139 103.504 51.1426 98.7738 48.9197C96.0849 47.7705 93.3722 46.7479 90.6293 45.7361C86.575 44.1399 84.0291 42.7858 82.0043 38.7361C81.9247 34.9167 82.6417 33.2156 84.9418 30.1736C95.259 21.9619 107.388 19.5287 120.317 19.2986Z" fill="black"/>
<path d="M107.942 82.361C108.702 82.3365 109.462 82.312 110.245 82.2868C117.043 82.252 122.055 84.2443 127.246 88.6306C127.785 89.2635 128.324 89.8964 128.879 90.5485C129.434 91.1737 129.988 91.7989 130.559 92.4431C135.886 100.895 135.071 113.171 133.387 122.732C129.653 139.141 121.592 161.149 109.504 173.236C107.004 173.486 107.004 173.486 104.504 173.236C102.504 171.236 102.883 171.9 102.504 169.236C102.984 165.009 104.878 161.906 107.067 158.361C116.562 142.224 127.599 121.143 123.129 101.986C122.758 100.914 122.387 99.841 122.004 98.736C121.664 97.5913 121.664 97.5913 121.317 96.4235C119.165 93.6574 116.3 93.2641 113.004 92.736C101.421 91.449 89.4389 96.6019 79.3363 101.916C76.5052 102.912 74.8502 102.555 72.0043 101.736C71.6743 99.756 71.3443 97.776 71.0043 95.736C75.0063 92.2012 79.0227 90.1626 83.8793 88.111C84.5612 87.812 85.2431 87.5129 85.9457 87.2048C93.292 84.0423 99.9447 82.3745 107.942 82.361Z" fill="black"/>
<path d="M136.313 74.0681C144.452 79.1124 149.709 86.3447 152.004 95.7361C155.977 116.79 148.362 135.557 136.942 152.861C135.004 154.736 135.004 154.736 132.379 155.236C130.004 154.736 130.004 154.736 128.004 151.736C127.426 148.63 127.435 146.621 129.172 143.92C130.223 142.583 131.282 141.252 132.348 139.928C140.669 128.918 144.317 113.781 142.442 100.174C140.827 92.7493 137.592 85.9863 131.129 81.6736C125.522 78.9278 119.413 79.0168 113.286 78.8767C110.004 78.7361 110.004 78.7361 109.004 77.7361C107.504 75.2361 108.004 73.2361 109.004 70.7361C118.358 66.319 127.72 69.5202 136.313 74.0681Z" fill="black"/>
<path d="M64.5043 97.4236C65.7418 97.5783 65.7418 97.5783 67.0043 97.7361C69.0043 100.736 69.0043 100.736 68.6918 103.361C68.0043 105.736 68.0043 105.736 67.0043 106.736C64.0668 106.986 64.0668 106.986 61.0043 106.736C59.0043 103.736 59.0043 103.736 59.2543 101.674C60.3992 98.7159 61.3429 97.8188 64.5043 97.4236Z" fill="black"/>
<path d="M143.254 27.7361C145.754 27.9861 146.254 27.9861 147.754 29.9861C148.254 32.9861 148 36 145.5 37C143 38 143 37.5 140.5 37C138.25 35.81 138.754 34.9861 138.504 32.4861C138.854 28.9919 139.76 28.0855 143.254 27.7361Z" fill="black"/>
</svg>
