<svg width="76" height="76" viewBox="0 0 76 76" fill="none" xmlns="http://www.w3.org/2000/svg">
<path d="M4.82776 0C2.18415 0 0 2.18415 0 4.82776V71.1722C0 73.8159 2.18415 76 4.82776 76H71.1722C73.8159 76 76 73.8229 76 71.1722V4.82776C76 2.18415 73.8229 0 71.1722 0H4.82776ZM4.82776 3.61905H71.1722C71.8437 3.61905 72.381 4.15626 72.381 4.82776V71.1722C72.381 71.8437 71.8438 72.381 71.1722 72.381H4.82776C4.15626 72.381 3.61905 71.8438 3.61905 71.1722V4.82776C3.61905 4.15626 4.15626 3.61905 4.82776 3.61905ZM34.381 34.381V57.1343C34.381 60.6261 33.0591 61.5238 30.7619 61.5238C28.3586 61.5238 26.6905 60.0253 25.5878 58.0815L19.9048 61.5238C21.5517 65.0086 25.5878 68.7619 31.186 68.7619C37.378 68.7619 41.6191 65.468 41.6191 58.237V34.381H34.381ZM56.9152 34.381C50.7515 34.381 46.8002 38.3252 46.8002 43.5063C46.8002 49.1257 50.1153 51.7835 55.0986 53.904L56.8233 54.6462C59.9688 56.0246 61.5238 56.8657 61.5238 59.2336C61.5238 61.2057 60.0253 62.6336 57.1626 62.6336C53.7556 62.6336 52.144 60.3222 50.6667 57.9048L45.2381 61.5238C47.2668 65.5316 50.907 68.7619 57.3181 68.7619C63.8776 68.7619 68.7619 65.3549 68.7619 59.1418C68.7619 53.3739 65.4539 50.808 59.58 48.2917L57.8553 47.5566C54.8936 46.2701 53.6072 45.436 53.6072 43.365C53.6072 41.6897 54.8936 40.4033 56.9152 40.4033C58.9015 40.4033 60.1738 41.2444 61.3542 43.365L66.7333 39.9156C64.4643 35.9078 61.3047 34.381 56.9152 34.381Z" fill="#DFB2F2"/>
</svg>
