<svg width="80" height="80" viewBox="0 0 80 80" fill="none" xmlns="http://www.w3.org/2000/svg">
<path d="M40 0C32.9416 0 28.1522 1.68478 25.1087 4.13043C22.0652 6.57609 20.8696 9.72146 20.8696 12.337V20.8696H38.2609V22.6087H12.337C9.15762 22.6087 5.93071 23.9878 3.6413 26.9022C1.3519 29.8166 0 34.1644 0 40C0 45.8356 1.3519 50.1834 3.6413 53.0978C5.93071 56.0122 9.15762 57.3913 12.337 57.3913H20.8696V67.663C20.8696 70.2785 22.0652 73.4239 25.1087 75.8696C28.1522 78.3152 32.9416 80 40 80C47.0584 80 51.8478 78.3152 54.8913 75.8696C57.9348 73.4239 59.1304 70.2785 59.1304 67.663V59.1304H41.7391V57.3913H67.663C70.8424 57.3913 74.0693 56.0122 76.3587 53.0978C78.6481 50.1834 80 45.8356 80 40C80 34.1644 78.6481 29.8166 76.3587 26.9022C74.0693 23.9878 70.8424 22.6087 67.663 22.6087H59.1304V12.337C59.1304 9.65353 57.9416 6.50136 54.8913 4.07609C51.841 1.65082 47.0516 0 40 0ZM40 3.47826C46.5149 3.47826 50.462 5 52.7174 6.79348C54.9728 8.58696 55.6522 10.6726 55.6522 12.337V33.0435C55.6522 35.9239 53.3152 38.2609 50.4348 38.2609H29.5652C25.9851 38.2609 22.9008 40.4687 21.5761 43.587C21.3519 44.1033 21.1481 44.6535 21.0326 45.2174C20.9171 45.7813 20.8696 46.3587 20.8696 46.9565V53.913H12.337C10.1291 53.913 8.08424 53.0503 6.41304 50.9239C4.74184 48.7975 3.47826 45.2921 3.47826 40C3.47826 34.7079 4.74184 31.2025 6.41304 29.0761C8.08424 26.9497 10.1291 26.087 12.337 26.087H41.7391V17.3913H24.3478V12.337C24.3478 10.7813 25.0204 8.66169 27.2826 6.84783C29.5448 5.03397 33.4918 3.47826 40 3.47826ZM31.3043 8.69565C29.3886 8.69565 27.8261 10.2582 27.8261 12.1739C27.8261 14.0897 29.3886 15.6522 31.3043 15.6522C33.2201 15.6522 34.7826 14.0897 34.7826 12.1739C34.7826 10.2582 33.2201 8.69565 31.3043 8.69565ZM59.1304 26.087H67.663C69.8709 26.087 71.9158 26.9497 73.587 29.0761C75.2582 31.2025 76.5217 34.7079 76.5217 40C76.5217 45.2921 75.2582 48.7975 73.587 50.9239C71.9158 53.0503 69.8709 53.913 67.663 53.913H38.2609V62.6087H55.6522V67.663C55.6522 69.2187 54.9796 71.3383 52.7174 73.1522C50.4552 74.966 46.5082 76.5217 40 76.5217C33.4918 76.5217 29.5448 74.966 27.2826 73.1522C25.0204 71.3383 24.3478 69.2187 24.3478 67.663V46.9565C24.3478 46.5965 24.3886 46.2636 24.4565 45.9239C24.9457 43.5462 27.0448 41.7391 29.5652 41.7391H50.4348C55.2106 41.7391 59.1304 37.8193 59.1304 33.0435V26.087ZM48.6957 64.3478C46.7799 64.3478 45.2174 65.9103 45.2174 67.8261C45.2174 69.7418 46.7799 71.3043 48.6957 71.3043C50.6114 71.3043 52.1739 69.7418 52.1739 67.8261C52.1739 65.9103 50.6114 64.3478 48.6957 64.3478Z" fill="#DFB2F2"/>
</svg>
