<svg width="93" height="85" viewBox="0 0 93 85" fill="none" xmlns="http://www.w3.org/2000/svg">
<path d="M65.1289 0.00639448C63.5695 -0.0460455 61.9373 0.225834 60.3008 0.756394C57.0278 1.81753 53.598 3.88541 50.0781 6.74857C48.6987 7.87065 47.3068 9.1533 45.9102 10.5142C44.5444 9.18784 43.181 7.93571 41.8321 6.83841C38.3151 3.97755 34.8946 1.91277 31.6289 0.854034C28.3633 -0.204686 25.114 -0.237505 22.4453 1.30325C19.7767 2.84401 18.1808 5.67233 17.4649 9.02981C16.7489 12.3873 16.8239 16.3856 17.543 20.8619C17.7928 22.4167 18.1529 24.0478 18.5586 25.7095C17.0337 26.1717 15.5529 26.6576 14.1797 27.1939C10.0355 28.8125 6.60644 30.749 4.10938 33.0533C1.61232 35.3576 0 38.1543 0 41.2252C0 44.2961 1.61232 47.0888 4.10938 49.3931C6.60642 51.6974 10.0355 53.6378 14.1797 55.2564C15.648 55.8299 17.2378 56.3463 18.8789 56.8345C18.2886 59.0402 17.8103 61.1806 17.4844 63.2095C16.7647 67.6894 16.6887 71.6882 17.4063 75.0533C18.1238 78.4184 19.7205 81.2627 22.4024 82.8111C25.0842 84.3595 28.3481 84.3214 31.6211 83.2603C34.8942 82.1992 38.3201 80.1352 41.8399 77.272C43.2066 76.1603 44.5891 74.8921 45.9727 73.5455C47.3629 74.8994 48.7522 76.1749 50.125 77.2916C53.642 80.1524 57.0664 82.2172 60.3321 83.2759C63.5977 84.3347 66.8431 84.3675 69.5118 82.8267C72.1804 81.286 73.7763 78.4576 74.4922 75.1002C75.2081 71.7427 75.1293 67.7444 74.4102 63.2681C74.0834 61.2337 73.6048 59.0901 73.0117 56.8775C74.7071 56.3774 76.347 55.8471 77.8594 55.2564C82.0036 53.6378 85.4327 51.6974 87.9297 49.3931C90.4268 47.0888 92.0391 44.296 92.0391 41.2252C92.0391 38.1543 90.4268 35.3576 87.9297 33.0533C85.4327 30.749 82.0036 28.8125 77.8594 27.1939C76.4665 26.6499 74.9629 26.1576 73.4141 25.69C73.8231 24.0181 74.1862 22.3753 74.4375 20.8111C75.1572 16.3313 75.2332 12.3285 74.5156 8.96344C73.7981 5.59834 72.1975 2.75789 69.5156 1.20953C68.1747 0.435354 66.6883 0.0588145 65.1289 0.00639448ZM64.9453 4.07669C65.9238 4.10345 66.7586 4.33631 67.4727 4.74857C68.9008 5.57309 69.9564 7.17781 70.5195 9.81889C71.0827 12.46 71.0632 16.0283 70.3984 20.1666C70.1708 21.5834 69.8403 23.085 69.4648 24.6236C65.3749 23.6393 60.8935 22.9085 56.1172 22.4791C53.7177 19.1546 51.2514 16.1304 48.7656 13.4439C50.0799 12.161 51.3857 10.9611 52.6602 9.92436C55.9116 7.2795 58.9898 5.47983 61.5586 4.64701C62.843 4.23059 63.9668 4.04993 64.9453 4.07669ZM26.9922 4.08841C27.9764 4.06093 29.1025 4.24111 30.3906 4.65873C32.9669 5.49395 36.0504 7.29284 39.3047 9.94C40.5533 10.9557 41.8304 12.1294 43.1172 13.3814C40.6135 16.0892 38.1299 19.1451 35.7149 22.4986C30.9556 22.936 26.4901 23.6737 22.418 24.6626C22.0449 23.1314 21.7188 21.6358 21.4922 20.2251C20.8268 16.0833 20.8102 12.5105 21.375 9.86186C21.9398 7.21318 23.004 5.60023 24.4453 4.76811C25.166 4.35205 26.008 4.11587 26.9922 4.08841ZM45.9727 16.3228C47.6017 18.0956 49.2317 20.0362 50.8477 22.1236C49.2596 22.0574 47.6521 22.0181 46.0195 22.0181C44.3545 22.0181 42.7164 22.0586 41.0977 22.1275C42.7142 20.0382 44.343 18.0971 45.9727 16.3228ZM46.0195 26.0572C48.7393 26.0572 51.3902 26.1689 53.9688 26.358C55.743 28.9063 57.4768 31.6098 59.1289 34.4712C60.5806 36.9855 61.8942 39.496 63.0899 41.9751C61.8816 44.4872 60.5459 47.0316 59.0742 49.5806C57.7788 51.8244 56.4259 53.9555 55.0508 56.0103C52.1382 56.2537 49.1202 56.3892 46.0196 56.3892C42.8443 56.3892 39.7585 56.2457 36.7813 55.9907C35.429 53.9655 34.099 51.8628 32.8242 49.6548C31.3559 47.1116 30.0267 44.5758 28.8203 42.0689C30.0318 39.5478 31.367 36.994 32.8438 34.436C34.4872 31.5896 36.216 28.9017 37.9805 26.3657C40.5868 26.1724 43.2684 26.0572 46.0195 26.0572ZM59.1211 26.858C62.4166 27.2693 65.5108 27.8407 68.3906 28.5259C67.5358 31.3282 66.4829 34.2553 65.207 37.2759C64.3787 35.6791 63.5207 34.0768 62.5938 32.4712C61.471 30.5266 60.3036 28.6696 59.1211 26.858ZM32.707 26.8892C31.5488 28.6678 30.4092 30.4868 29.3086 32.3931C28.3697 34.0193 27.494 35.6431 26.6563 37.2603C25.3915 34.2578 24.3449 31.3474 23.4961 28.5611C26.3555 27.8743 29.4331 27.3053 32.707 26.8892ZM72.3477 29.5884C73.7654 30.0174 75.1347 30.4651 76.3906 30.9556C80.2109 32.4477 83.2328 34.2146 85.1914 36.022C87.15 37.8294 88 39.553 88 41.2251C88 42.8972 87.15 44.6209 85.1914 46.4282C83.2328 48.2356 80.2109 50.0025 76.3906 51.4946C74.9949 52.0398 73.4614 52.5341 71.8672 53.0025C70.7299 49.4849 69.2783 45.8152 67.5508 42.0689C69.5371 37.7678 71.1417 33.5742 72.3477 29.5884ZM19.625 29.608C20.8171 33.5538 22.4012 37.7061 24.3594 41.9634C22.6205 45.7315 21.1617 49.4221 20.0195 52.9595C18.4815 52.5035 17 52.0225 15.6484 51.4947C11.8281 50.0026 8.80624 48.2357 6.84766 46.4283C4.88908 44.6209 4.03906 42.8973 4.03906 41.2252C4.03906 39.5531 4.88908 37.8294 6.84766 36.022C8.80624 34.2147 11.8281 32.4478 15.6484 30.9556C16.8851 30.4726 18.2314 30.0313 19.625 29.608ZM46.0195 32.0376C40.5204 32.0376 36.0195 36.5385 36.0195 42.0376C36.0195 47.5368 40.5204 52.0376 46.0195 52.0376C51.5187 52.0376 56.0195 47.5368 56.0195 42.0376C56.0195 36.5385 51.5187 32.0376 46.0195 32.0376ZM46.0195 36.0376C49.3569 36.0376 52.0195 38.7002 52.0195 42.0376C52.0195 45.375 49.3569 48.0376 46.0195 48.0376C42.6821 48.0376 40.0195 45.375 40.0195 42.0376C40.0195 38.7002 42.6821 36.0376 46.0195 36.0376ZM65.2578 46.7642C66.3067 49.2466 67.2185 51.6757 67.9844 54.0181C65.5792 54.5758 63.0181 55.0457 60.3242 55.4165C61.0997 54.1792 61.8655 52.9188 62.6133 51.6236C63.5506 50 64.4212 48.3786 65.2578 46.7642ZM26.7031 46.7681C27.5442 48.3925 28.4201 50.0211 29.3633 51.6548C30.1017 52.9337 30.8557 54.1824 31.6211 55.4048C28.9352 55.0324 26.382 54.5608 23.9844 54.0025C24.7469 51.6673 25.659 49.2432 26.7031 46.7681ZM22.832 57.8853C26.4517 58.7428 30.375 59.4015 34.5352 59.8306C37.3128 63.8481 40.2049 67.4562 43.1172 70.6119C41.8152 71.8814 40.5247 73.0728 39.2617 74.1002C36.0103 76.745 32.9282 78.5408 30.3594 79.3736C27.7906 80.2064 25.8734 80.0966 24.4453 79.272C23.0172 78.4475 21.9655 76.8428 21.4024 74.2017C20.8392 71.5607 20.8548 67.9962 21.5195 63.858C21.8211 61.9807 22.2718 59.9704 22.832 57.8853ZM69.1406 57.9009C69.7051 59.9976 70.1577 62.0173 70.461 63.9048C71.1263 68.0467 71.1429 71.6155 70.5781 74.2642C70.0134 76.9129 68.953 78.5297 67.5117 79.3619C66.0704 80.194 64.1387 80.3065 61.5625 79.4712C58.9863 78.636 55.9027 76.8332 52.6485 74.1861C51.3764 73.1514 50.077 71.9542 48.7656 70.6744C51.6969 67.5068 54.6105 63.8792 57.4063 59.8384C61.5769 59.4121 65.5111 58.7574 69.1406 57.9009ZM39.7539 60.2408C41.8074 60.3527 43.888 60.4283 46.0195 60.4283C48.0805 60.4283 50.0937 60.3572 52.082 60.2525C50.0495 62.9948 47.9776 65.4879 45.9141 67.7329C43.8518 65.4831 41.7838 62.9856 39.7539 60.2408Z" fill="#DFB2F2"/>
</svg>
