<svg width="100" height="77" viewBox="0 0 100 77" fill="none" xmlns="http://www.w3.org/2000/svg">
<path d="M45.5957 2.00276e-05C41.1396 2.00276e-05 36.436 0.834098 31.9899 2.41413C26.6658 4.30618 16.5994 8.54255 8.99722 15.6527C1.27905 22.8729 -0.625029 29.8187 0.164989 33.9148C1.64702 41.591 9.02593 46.846 14.6341 50.7121C10.538 53.2201 6.08776 56.6746 4.30572 60.6147C2.62368 64.3307 2.53396 68.1582 4.04399 71.3922C5.17202 73.8063 7.0984 75.5974 9.19645 76.1814C10.6485 76.5854 12.1495 76.7908 13.6575 76.7908C19.6136 76.7908 25.4896 73.5403 28.9977 68.3101C29.5237 67.5261 29.9769 66.7105 30.3649 65.8765C30.5789 66.1305 30.8009 66.3714 31.029 66.5874C32.943 68.4015 35.2244 68.4 35.9744 68.4C38.2864 68.4 39.9137 67.3979 41.0878 66.1538C42.0678 66.8058 43.2208 67.1539 44.4629 67.1539C44.6129 67.1539 44.768 67.1523 44.916 67.1343C47.402 66.8303 50.0841 64.4038 50.0841 64.4038C50.1881 64.4938 50.2924 64.5776 50.4044 64.6616C51.4604 65.4576 52.789 65.8452 54.4631 65.8452C54.7411 65.8452 55.0285 65.8379 55.3186 65.8179C57.3646 65.6799 58.9072 65.1907 59.8773 64.7827C60.8533 64.4267 62.2661 63.7973 63.6781 62.7592C64.0201 62.5072 64.3468 62.2423 64.6508 61.9623C65.2728 62.3404 65.9748 62.613 66.7368 62.767C67.1088 62.843 67.497 62.8803 67.897 62.8803C68.949 62.8803 70.0876 62.6232 71.3736 62.0951C72.4176 61.7351 73.9243 61.0897 75.4284 59.9857C78.9125 57.4237 80.6077 54.3786 80.4637 50.9426C80.4597 50.8366 80.4521 50.7302 80.4441 50.6222C80.9581 50.5662 81.4899 50.5402 82.0379 50.5402C82.7159 50.5402 83.431 50.5851 84.1591 50.6691C88.9292 51.2271 89.9545 53.4778 89.9365 54.2238C89.9065 54.4199 89.567 54.7349 89.249 54.9309C87.231 56.1789 86.3909 57.7994 86.7489 59.7474C87.131 61.8555 88.9017 63.3334 91.0537 63.3334C91.4637 63.3334 91.8221 63.2819 92.1202 63.2319C94.6782 62.7999 99.5526 59.6253 99.7766 53.9192C99.9086 50.6071 98.5518 47.2181 96.0578 44.6221C92.9237 41.362 88.3282 39.5673 83.1161 39.5673H82.995C80.8429 39.5793 78.7529 39.8742 76.7448 40.4462L76.6823 39.9931C76.5603 39.1351 76.514 38.8133 76.612 38.0672C76.7 37.3972 77.1093 36.1864 77.3073 35.6024C77.5853 34.7863 77.7875 34.197 77.7175 33.325C77.5815 31.6229 76.1671 28.7319 71.733 28.6999H71.7174H71.608C67.6679 28.6999 65.2335 29.8442 64.3735 32.1023C64.2654 32.3843 64.1383 32.7563 64.0063 33.1843C63.0862 32.2163 61.6082 31.4542 59.3421 31.4382H59.3265H59.2132C58.7432 31.4382 58.2954 31.457 57.8694 31.489C63.5536 26.2229 67.1766 18.6605 65.3305 11.4143C63.5365 4.37416 55.9739 2.00276e-05 45.5957 2.00276e-05ZM45.5918 3.98059C53.572 3.98059 60.0928 6.96454 61.4788 12.4027C63.5069 20.3548 56.6 29.8659 47.7598 33.2859C43.1657 35.064 39.0334 35.6415 35.8533 35.6415C33.5712 35.6415 31.7779 35.3415 30.6579 34.9735C27.6098 33.9735 25.8203 31.9668 25.3843 30.8328C25.2143 30.3888 24.9183 29.6415 25.3843 29.3835C25.4643 29.3395 25.5331 29.3093 25.6031 29.3093C25.7871 29.3093 26.0023 29.4982 26.5523 30.1062C27.1903 30.8102 29.5178 32.5516 33.8259 32.5516C34.4319 32.5516 35.0813 32.5202 35.7674 32.4422C50.3577 30.8061 59.1454 19.4677 56.3694 13.3675C55.3494 11.1275 51.7705 9.53543 46.5684 9.53541C41.8543 9.53541 35.8067 10.8461 29.1266 14.1761C11.9742 22.7223 11.0456 29.7661 10.8996 32.4422C10.4976 39.8023 19.9827 43.6774 25.1148 49.1535C25.1828 49.2255 25.248 49.2963 25.314 49.3683C26.276 48.8383 27.2888 48.2815 28.2828 47.7355C30.8709 46.3134 33.307 44.9804 34.447 44.3604C36.253 41.7363 39.9222 38.8407 42.5683 38.8407C46.8004 38.8407 45.3418 44.919 45.3418 44.919C45.3418 44.919 45.4289 44.6358 45.5449 44.6338C45.6369 44.6318 45.9341 44.1611 46.6621 44.1611C46.8801 44.1611 47.1336 44.2035 47.4356 44.3135C48.7796 44.8055 48.4745 45.7488 48.4825 45.8448C48.4985 46.0308 46.8965 51.4356 46.2285 54.8997C45.9105 56.5517 46.0955 57.7552 46.1895 57.7552C46.3215 57.7552 46.5879 57.3322 46.8379 56.8802L46.834 56.8684C46.834 56.8684 47.02 56.5293 47.334 55.9153C47.374 55.8333 47.3965 55.7825 47.3965 55.7825L47.4004 55.7864C47.7684 55.0624 48.2868 54.0028 48.8849 52.6848C50.0589 50.0967 54.5401 40.1108 54.9201 39.0048C55.3002 37.8987 55.4998 36.7544 55.6858 36.2664C55.8698 35.7864 57.3993 35.4227 59.2093 35.4227H59.307C61.159 35.4367 61.3438 36.2235 61.3578 36.3875C61.3718 36.5515 60.4758 38.7419 60.2718 40.29C60.0678 41.838 60.264 42.615 60.432 43.915C60.544 44.7671 61.0755 45.8454 61.7016 47.0674C63.6156 43.9354 66.989 37.9445 67.315 36.2664C67.537 35.1204 67.8946 34.02 68.0806 33.532C68.2646 33.052 69.7961 32.6843 71.6041 32.6843H71.6979C73.5499 32.6983 73.7386 33.4891 73.7526 33.6531C73.7666 33.8171 72.8706 36.0075 72.6666 37.5555C72.4626 39.1036 72.6588 39.8767 72.8268 41.1767C72.9708 42.2887 73.8342 43.7893 74.6862 45.4893C77.0163 44.3413 79.7967 43.5678 83.0067 43.5518H83.1083C91.3465 43.5518 95.992 48.9006 95.8 53.7707C95.656 57.6148 92.1199 59.2018 91.4639 59.3138C91.3039 59.3418 91.1658 59.3607 91.0538 59.3607C90.8318 59.3607 90.7052 59.2806 90.6592 59.0326C90.6112 58.7746 90.7828 58.6559 91.3428 58.3099C91.9028 57.9639 93.5761 56.8158 93.8742 54.7278C94.1742 52.6397 92.6062 47.6538 84.62 46.7198C83.712 46.6138 82.854 46.5674 82.0379 46.5674C79.5119 46.5674 77.4235 47.039 75.7175 47.7511C76.1375 48.8371 76.4468 49.9666 76.4948 51.1066C76.5988 53.6107 74.8689 55.4605 73.0729 56.7825C72.0269 57.5525 70.9033 58.0663 69.9713 58.3763C69.3472 58.6403 68.553 58.9076 67.897 58.9076C67.765 58.9076 67.64 58.8964 67.522 58.8724C65.9639 58.5584 65.1338 57.1763 66.1938 54.1262C66.7678 52.4762 68.4186 49.962 71.0807 47.7979C70.4726 46.5479 69.7957 45.2745 69.4517 44.1065C68.7737 41.8004 68.565 40.4072 68.565 40.4072C68.565 40.4072 66.3657 44.9567 63.5336 49.0988C63.3696 49.3388 63.2073 49.5718 63.0453 49.8058C63.6013 51.0958 64.042 52.4649 64.1 53.845C64.204 56.347 63.1187 58.2379 61.3226 59.5599C60.3486 60.2759 59.3122 60.7713 58.4202 61.0873C57.8482 61.3353 56.6912 61.7409 55.0451 61.8529C54.8471 61.8669 54.6512 61.8764 54.4592 61.8764C53.7812 61.8764 53.1712 61.7796 52.7912 61.4936C52.1252 60.9935 52.0448 60.3689 52.3888 59.5209C52.6809 58.8008 54.8616 56.3082 56.6936 54.1262C57.1976 53.5242 57.6816 52.911 58.1116 52.341C58.1056 52.327 58.1038 52.3175 58.1038 52.3175C58.1038 52.3175 58.4349 51.8898 58.9749 51.1417C58.3069 49.7037 57.4569 48.2008 57.0569 46.8448C56.3789 44.5387 56.1741 43.1416 56.1741 43.1416C56.1741 43.1416 53.9471 48.8494 51.6271 53.4035C49.8311 56.9296 48.6319 59.0672 48.0919 60.0052C48.0879 60.0292 48.084 60.0404 48.084 60.0404C48.084 60.0404 48.0053 60.1779 47.8653 60.3919C47.7973 60.508 47.7637 60.5677 47.7637 60.5677C47.7637 60.5677 47.7618 60.5601 47.7598 60.5521C47.1578 61.4401 45.8049 63.1811 44.4629 63.1811C40.7748 63.1811 42.1308 55.6965 42.1308 55.6965C42.1308 55.6965 41.0538 58.4689 39.8378 60.849C38.8477 62.789 37.9464 64.4311 35.9744 64.4311C35.4044 64.4311 34.5075 64.4125 33.7595 63.7045C32.0655 62.0965 30.7711 58.0128 31.0251 54.8528C31.2411 52.1627 31.6544 50.3012 32.2204 48.7472C31.2064 49.2992 30.0393 49.9515 28.8492 50.6496C28.2392 51.0076 27.6251 51.3717 27.0211 51.7277C27.0411 51.7637 27.0617 51.8011 27.0797 51.8371C28.5957 54.7651 28.995 61.175 25.6929 66.0991C23.0149 70.0932 18.4717 72.8219 13.6536 72.8219C12.5296 72.8219 11.391 72.6731 10.259 72.3571C8.32695 71.8191 5.40494 67.8234 7.923 62.2553C10.143 57.3472 19.0188 52.7001 21.3569 51.5441C21.5529 51.4361 21.7714 51.3185 22.0015 51.1925C17.3393 47.1144 5.69169 41.615 4.05966 33.1648C3.59964 30.7867 4.71421 25.0932 11.7044 18.5551C17.5825 13.057 25.7621 8.84826 33.3142 6.1642C37.4723 4.68617 41.7037 3.98059 45.5918 3.98059ZM46.5762 13.5003C50.8363 13.5003 52.5735 14.7373 52.7755 15.0433C53.0555 15.6633 52.9923 17.0475 51.9122 18.9536C49.5982 23.0337 43.572 27.5649 35.3298 28.489C34.8158 28.547 34.3137 28.5749 33.8337 28.5749C30.7516 28.5749 29.4706 27.3994 29.4586 27.3874C28.7426 26.5954 27.5949 25.3307 25.6109 25.3287C24.8708 25.3287 24.1503 25.5229 23.4663 25.903C22.8843 26.225 20.0632 28.0431 21.6733 32.2312C22.5473 34.5033 25.2773 37.387 29.4234 38.747C30.5315 39.111 31.8885 39.3649 33.3806 39.5009C32.7766 40.1009 32.2408 40.7062 31.7868 41.2822C30.4968 41.9862 28.4866 43.0871 26.3765 44.2471L25.9781 44.462C24.688 43.3259 23.3123 42.2713 21.9663 41.2353C17.5822 37.8632 14.7204 35.4431 14.8724 32.6531C15.1944 26.757 23.7678 21.2792 30.904 17.7231C36.3681 15.001 41.9341 13.5003 46.5762 13.5003ZM51.6661 35.8719C51.6321 36.0019 51.6025 36.1363 51.5685 36.2743C51.4545 36.7343 51.326 37.252 51.17 37.704C51.038 38.064 50.484 39.3447 49.752 41.0087C49.64 40.9447 49.5263 40.8851 49.4083 40.8291C49.2083 39.665 48.7881 38.4686 47.9981 37.4305C48.3941 37.2905 48.7913 37.1412 49.1973 36.9852C50.0293 36.6632 50.8541 36.2919 51.6661 35.8719ZM42.4784 42.4307C41.7904 42.4307 40.6746 43.0304 39.6346 44.1924C38.7386 45.1964 37.2118 47.7824 36.4978 49.9465C35.0778 54.2466 35.689 58.6163 36.6971 58.8803C36.7271 58.8883 36.7608 58.892 36.7908 58.892C37.9708 58.892 39.8246 53.3806 40.7206 51.1926C41.2986 49.7845 43.5447 43.5381 43.0527 42.7041C42.9447 42.5221 42.7444 42.4307 42.4784 42.4307ZM72.3541 49.5128C70.8621 50.8309 70.0035 52.2124 69.6275 53.0325C68.6695 55.1205 68.6226 55.7894 68.9126 55.9974C70.3066 55.4974 72.6075 54.2898 72.6275 51.0598C72.6315 50.5757 72.5281 50.0549 72.3541 49.5128ZM24.189 53.0715C24.045 53.1555 23.9108 53.2376 23.7788 53.3176V53.3215C23.7788 53.3215 23.717 53.3571 23.603 53.4231C22.915 53.8351 22.3464 54.1755 21.9624 54.4075C20.2683 55.4655 17.7137 57.1861 15.7357 59.0521C12.4896 62.1142 11.8087 66.365 13.5208 67.357C13.8868 67.569 14.3691 67.6734 14.9231 67.6734C16.7632 67.6734 19.4127 66.5164 21.4467 64.2983C24.2228 61.2683 25.369 57.4296 24.189 53.0715ZM60.2288 53.5715C59.6528 54.3276 59.1223 54.9997 58.6663 55.5677C57.8823 56.5437 55.8889 58.6849 55.8889 58.6849C55.8889 58.6849 55.6067 58.9528 55.7287 59.0248C55.7687 59.0488 55.8192 59.0599 55.8772 59.0599C56.0672 59.0599 56.3467 58.9464 56.6467 58.7904C57.7527 58.0944 60.2306 56.3622 60.2366 53.7942C60.2366 53.7202 60.2348 53.6475 60.2288 53.5715Z" fill="#DFB2F2"/>
</svg>
