<svg width="86" height="86" viewBox="0 0 86 86" fill="none" xmlns="http://www.w3.org/2000/svg">
<path d="M21.5659 41.2941C21.2299 45.524 24.9459 48.6392 27.4819 48.6392C30.0213 48.521 39.9118 40.1863 39.9118 40.1863C44.5636 34.303 44.5838 31.6872 44.5838 29.6309C44.1956 20.5535 27.6575 34.3796 21.5659 41.2941ZM62.4772 37.7806C64.722 33.0294 61.7018 27.7522 55.1323 32.3873C49.9117 35.7055 43.1531 42.5315 39.9186 45.2034C38.4183 48.2338 42.2213 56.5499 48.2481 52.159C55.3719 46.9835 60.5738 42.1169 62.4772 37.7806ZM68.5913 9.03908L70.0377 0H86V16.5002L80.1501 16.5701L73.1064 40.4275C73.5448 48.8473 69.2751 48.9844 68.7297 52.8479C67.3588 62.5582 56.4998 70.5033 52.3482 70.5033C49.5791 70.423 47.5549 67.2495 46.8751 64.484C54.6822 55.8489 65.181 49.0626 65.181 49.0626C65.8366 44.5212 64.3957 43.0755 69.2413 39.2055L73.8652 14.8941C69.916 12.2864 68.0735 12.3269 68.5913 9.03908ZM37.4352 49.3012C41.4836 57.4585 47.3331 57.6712 56.4022 47.2858C56.6178 48.2459 56.8537 49.2519 56.4206 51.6671C37.9718 68.1683 20.5956 84.2281 15.3063 86H0V81.8947C2.48928 78.4428 22.919 61.5922 37.4352 49.3012ZM64.7012 65.0952C63.8706 72.1561 57.4333 78.3344 48.8311 86H21.5692L44.5519 66.6407C48.5194 75.67 55.5662 74.3619 64.7012 65.0952ZM32.4617 49.0689L0 76.7372V58.7865L19.103 43.235C20.125 49.0234 26.3853 54.1203 32.4617 49.0689Z" fill="#DFB2F2"/>
</svg>
