<svg width="100" height="60" viewBox="0 0 100 60" fill="none" xmlns="http://www.w3.org/2000/svg">
<path d="M27.5254 30.05C27.5543 30.0522 27.5832 30.0544 27.6129 30.0566C30.5429 30.281 33.4289 30.8516 39.3941 33.5173C39.4374 33.5425 39.4374 33.5425 39.4816 33.5683C40.4946 34.1621 41.47 34.8271 42.3946 35.5509C42.4337 35.5815 42.4729 35.612 42.5121 35.6425C42.883 35.9322 43.246 36.2307 43.6043 36.5358C43.643 36.5687 43.6816 36.6016 43.7203 36.6344C43.9551 36.8339 44.1869 37.0358 44.4139 37.2441C44.4818 37.3059 44.5504 37.3664 44.62 37.4263C44.9121 37.6804 45.1949 37.9471 45.466 38.2234C45.523 38.2794 45.5815 38.3309 45.6425 38.3824C45.8453 38.5589 46.0326 38.7514 46.2221 38.9418C46.2648 38.9845 46.3074 39.0272 46.35 39.0699C46.4414 39.1614 46.5327 39.2529 46.624 39.3445C46.7686 39.4895 46.9132 39.6343 47.0579 39.7792C47.3911 40.1127 47.7241 40.4465 48.0571 40.7802C48.3624 41.0862 48.6678 41.3922 48.9734 41.6981C49.117 41.8419 49.2606 41.9858 49.4041 42.1297C49.4935 42.2194 49.583 42.3091 49.6726 42.3987C49.7139 42.4401 49.7552 42.4815 49.7964 42.5229C49.9856 42.7129 50.174 42.9021 50.3786 43.0756C50.4436 43.1311 50.5033 43.1908 50.5626 43.2523C50.6677 43.3587 50.7764 43.458 50.8898 43.5554C50.9745 43.6293 51.0571 43.7054 51.1398 43.7815C51.2888 43.9174 51.442 44.0462 51.599 44.1727C51.667 44.2285 51.7336 44.2846 51.7996 44.3425C52.103 44.6088 52.4209 44.8522 52.7461 45.0912C52.8254 45.1494 52.9045 45.208 52.9835 45.2667C53.5089 45.6538 54.0624 45.9978 54.63 46.3194C54.6519 46.3318 54.6737 46.3442 54.6963 46.357C56.5997 47.4251 58.8621 47.9009 61.0311 47.9531C61.0596 47.9538 61.0881 47.9545 61.1174 47.9553C64.5235 48.0295 67.7473 46.7784 71.0782 44.1658C71.1331 44.1188 71.1884 44.0723 71.2438 44.0258C71.7137 43.6301 72.1524 43.2024 72.5872 42.7688C72.613 42.7432 72.613 42.7432 72.6393 42.7171C72.8152 42.5418 72.9884 42.3655 73.15 42.1767C73.224 42.0905 73.3016 42.008 73.379 41.9249C73.5215 41.7707 73.6562 41.6119 73.7878 41.4483C73.8597 41.3603 73.9334 41.2745 74.008 41.1888C74.2158 40.9502 74.4092 40.7027 74.5999 40.4503C74.7191 40.2927 74.8421 40.1384 74.9668 39.985C75.0177 40.1161 74.9808 40.2259 74.9445 40.3555C74.9382 40.3792 74.9318 40.4028 74.9253 40.4272C74.9041 40.5056 74.8823 40.5839 74.8605 40.6622C74.8453 40.7176 74.8301 40.7729 74.8149 40.8282C74.6457 41.4403 74.4593 42.0471 74.2667 42.6522C74.2591 42.6761 74.2515 42.7001 74.2436 42.7248C73.5958 44.7666 72.7459 46.7688 71.6662 48.6198C71.6481 48.6512 71.6299 48.6826 71.6111 48.7149C71.3738 49.124 71.129 49.5268 70.8661 49.9201C70.8473 49.9482 70.8285 49.9764 70.8091 50.0055C70.4028 50.6119 69.979 51.2006 69.5133 51.7629C69.4462 51.8441 69.3801 51.9261 69.3138 52.0079C68.8381 52.587 68.3279 53.1277 67.7989 53.6582C67.781 53.6762 67.7631 53.6941 67.7447 53.7127C67.5465 53.9116 67.346 54.1052 67.1321 54.2875C67.0785 54.336 67.025 54.3846 66.9717 54.4333C66.6688 54.7062 66.3477 54.9577 66.0256 55.2074C65.987 55.2374 65.9485 55.2675 65.9101 55.2978C65.2089 55.8504 64.4413 56.3483 63.6649 56.7879C63.6376 56.8034 63.6103 56.8189 63.5823 56.8348C61.0773 58.2487 58.334 59.1322 50.2293 59.999C50.0925 59.9988 49.9557 59.999 49.819 59.9996C46.8893 60.0126 43.9476 59.6757 40.3276 58.5882C40.306 58.5812 40.2845 58.5743 40.2624 58.5671C39.3486 58.2711 38.459 57.9116 37.5911 57.5007C37.49 57.4529 37.3887 57.4055 37.2873 57.3582C35.575 56.5524 33.9862 55.5124 32.4929 54.3541C32.4721 54.3381 32.4513 54.322 32.4299 54.3054C32.18 54.1122 31.936 53.9134 31.6959 53.7082C31.5996 53.626 31.5016 53.5461 31.4031 53.4665C31.2546 53.3456 31.1117 53.2198 30.9701 53.0909C30.902 53.029 30.833 52.9683 30.7634 52.9081C30.6327 52.7942 30.5051 52.6771 30.3776 52.5597C30.2757 52.4659 30.173 52.373 30.0696 52.2809C29.7023 51.9507 29.3437 51.611 28.9981 51.2582C28.9027 51.1614 28.8059 51.0687 28.7026 50.9804C28.5551 50.852 28.4165 50.716 28.2785 50.5776C28.2528 50.5519 28.2271 50.5262 28.2006 50.4998C28.1466 50.4458 28.0927 50.3918 28.0388 50.3378C27.9569 50.2558 27.8749 50.1739 27.7928 50.092C27.7401 50.0393 27.6874 49.9865 27.6347 49.9337C27.6104 49.9096 27.5862 49.8854 27.5613 49.8606C27.4547 49.7535 27.3509 49.6459 27.2529 49.5309C27.0713 49.3205 26.8709 49.1275 26.6743 48.9312C26.6305 48.8873 26.5866 48.8434 26.5427 48.7995C26.4511 48.7078 26.3594 48.6162 26.2677 48.5247C26.1508 48.4079 26.034 48.291 25.9172 48.1741C25.8268 48.0835 25.7362 47.993 25.6456 47.9025C25.6026 47.8594 25.5595 47.8164 25.5165 47.7733C25.2218 47.477 25.2218 47.477 24.9108 47.1981C24.8216 47.1214 24.7403 47.037 24.6582 46.9529C24.5317 46.8248 24.4036 46.7017 24.2664 46.585C24.1842 46.5131 24.1048 46.4389 24.0253 46.3642C23.8394 46.1896 23.6512 46.0219 23.452 45.8625C23.3648 45.7915 23.2798 45.7187 23.1951 45.6448C22.9148 45.4007 22.6221 45.1751 22.3245 44.9525C22.3033 44.9366 22.2821 44.9207 22.2603 44.9042C20.3184 43.4448 18.1561 42.5368 15.7526 42.1917C15.7298 42.1884 15.7071 42.185 15.6836 42.1816C15.0047 42.0842 14.3275 42.0391 13.6418 42.0416C13.5899 42.0417 13.5899 42.0417 13.537 42.0418C10.9669 42.0494 8.44902 42.7814 6.25511 44.1191C6.22826 44.1354 6.20141 44.1517 6.17374 44.1685C5.41548 44.6318 4.68924 45.1564 4.0167 45.7374C3.92114 45.8196 3.82369 45.8988 3.72551 45.9777C3.6032 46.0772 3.48972 46.1799 3.38058 46.2935C3.32194 46.3521 3.26113 46.4059 3.19808 46.4597C3.0532 46.5857 2.91698 46.7189 2.78147 46.8548C2.7565 46.8798 2.73153 46.9047 2.7058 46.9304C2.6534 46.9828 2.60104 47.0352 2.54872 47.0876C2.46926 47.1673 2.38962 47.2467 2.30997 47.3262C2.25875 47.3774 2.20755 47.4287 2.15636 47.4799C2.13288 47.5033 2.1094 47.5268 2.0852 47.5509C1.95275 47.684 1.82604 47.8203 1.70353 47.9626C1.63994 48.0364 1.57422 48.1082 1.50846 48.1802C1.37863 48.324 1.25537 48.4722 1.13353 48.6228C1.06323 48.7088 0.991752 48.7935 0.919537 48.8779C0.73794 49.0902 0.565367 49.3079 0.396703 49.5306C0.320483 49.6309 0.243471 49.7306 0.166569 49.8305C0.138349 49.8671 0.110132 49.9038 0.0819193 49.9405C0.0617206 49.9668 0.0415218 49.993 0.020711 50.0201C-0.0219358 49.8921 0.00921829 49.8046 0.0429804 49.6789C0.0524989 49.6422 0.0524989 49.6422 0.0622098 49.6049C0.0834581 49.5237 0.105179 49.4427 0.126979 49.3616C0.138227 49.3194 0.138226 49.3194 0.1497 49.2764C0.874588 46.5611 1.8691 43.8578 3.65466 40.8185C3.67436 40.786 3.69406 40.7535 3.71436 40.72C3.94912 40.3329 4.1933 39.9546 4.4548 39.585C4.46857 39.5654 4.48235 39.5458 4.49654 39.5256C4.8379 39.0399 5.19576 38.5688 5.57312 38.1106C5.61632 38.0579 5.65901 38.0048 5.70163 37.9516C5.85218 37.7641 6.00988 37.5854 6.17431 37.4101C6.26104 37.3176 6.34569 37.2239 6.42837 37.1277C6.55238 36.9858 6.68307 36.8518 6.81653 36.7187C6.84073 36.6945 6.86492 36.6703 6.88985 36.6453C6.94066 36.5945 6.99151 36.5437 7.04241 36.4929C7.11963 36.4159 7.19667 36.3387 7.2737 36.2614C7.32342 36.2117 7.37314 36.162 7.42288 36.1124C7.44557 36.0896 7.46825 36.0669 7.49163 36.0434C7.64089 35.8949 7.7957 35.7548 7.95539 35.6176C7.99511 35.5828 8.0348 35.5479 8.07443 35.5129C8.34994 35.2714 8.6309 35.0397 8.92223 34.8175C8.95915 34.7893 8.95915 34.7893 8.99683 34.7605C11.4642 32.8795 14.2578 31.6126 17.257 30.8501C17.2993 30.8393 17.3415 30.8285 17.3851 30.8174C20.1679 30.1136 23.0379 29.9491 27.5254 30.05Z" fill="#DFB2F2"/>
<path d="M49.7624 0.00103912C49.8992 0.0011927 50.036 0.000965028 50.1728 0.000355405C53.1025 -0.0125638 56.0441 0.324285 59.6642 1.4118C59.6857 1.41876 59.7072 1.42571 59.7294 1.43288C60.6431 1.72889 61.5327 2.08842 62.4007 2.49927C62.5018 2.54712 62.6031 2.59447 62.7044 2.64183C63.7825 3.14904 64.8095 3.74866 65.7985 4.41231C65.8233 4.42893 65.8481 4.44554 65.8736 4.46266C66.4297 4.83739 66.9691 5.23496 67.4988 5.64586C67.5196 5.66193 67.5404 5.678 67.5619 5.69456C67.8117 5.88782 68.0557 6.08661 68.2958 6.2918C68.3922 6.37395 68.4902 6.45388 68.5886 6.53351C68.737 6.65431 68.8799 6.78004 69.0214 6.90883C69.091 6.9721 69.1614 7.03434 69.2325 7.0961C69.8202 7.60864 70.4021 8.13668 70.9464 8.69546C71.0131 8.76052 71.0801 8.82086 71.1508 8.88124C71.318 9.02709 71.4743 9.18309 71.6309 9.3401C71.6618 9.37096 71.6927 9.40182 71.7245 9.43361C71.7895 9.49853 71.8544 9.56351 71.9193 9.62854C72.0017 9.71118 72.0843 9.79367 72.167 9.87611C72.2467 9.95574 72.3264 10.0355 72.4061 10.1152C72.4354 10.1445 72.4647 10.1737 72.4949 10.2039C72.6148 10.3242 72.733 10.4444 72.8434 10.5736C73.0165 10.7749 73.2077 10.9595 73.3955 11.1469C73.4372 11.1886 73.4788 11.2302 73.5204 11.2719C73.6073 11.3589 73.6943 11.4457 73.7813 11.5326C73.8922 11.6433 74.0029 11.7541 74.1136 11.865C74.1995 11.951 74.2854 12.0369 74.3713 12.1227C74.4122 12.1635 74.453 12.2044 74.4938 12.2453C74.7792 12.5315 74.7792 12.5315 75.0802 12.8011C75.1696 12.8782 75.2512 12.9627 75.3335 13.0471C75.4601 13.1752 75.5881 13.2983 75.7254 13.415C75.8075 13.4869 75.8869 13.5611 75.9664 13.6358C76.1523 13.8104 76.3405 13.9781 76.5397 14.1375C76.6269 14.2085 76.7119 14.2813 76.7966 14.3552C77.077 14.5993 77.3696 14.8249 77.6672 15.0475C77.6884 15.0634 77.7096 15.0793 77.7314 15.0958C79.8474 16.6861 82.1876 17.5593 84.8018 17.8813C84.8362 17.8857 84.8706 17.8901 84.906 17.8947C88.0001 18.2796 91.2055 17.4394 93.8367 15.8143C93.8685 15.7947 93.9003 15.7752 93.9331 15.7551C94.3181 15.5182 94.6886 15.2693 95.0457 14.9921C95.1342 14.9238 95.2241 14.8576 95.314 14.7912C95.504 14.6485 95.688 14.4997 95.8703 14.3473C95.8877 14.3328 95.9052 14.3183 95.9231 14.3033C96.1366 14.1248 96.3476 13.9441 96.5532 13.7566C96.6039 13.7107 96.6548 13.6651 96.7062 13.6201C96.9657 13.3917 97.2089 13.1472 97.4529 12.9025C97.5269 12.8283 97.6012 12.7542 97.6754 12.6802C97.7233 12.6323 97.7711 12.5844 97.819 12.5365C97.8408 12.5147 97.8626 12.493 97.8851 12.4706C98.0131 12.3419 98.1351 12.2096 98.2536 12.0721C98.3228 11.9919 98.3947 11.9143 98.4666 11.8365C98.6149 11.6737 98.7552 11.5059 98.8934 11.3344C98.9431 11.2733 98.9933 11.2127 99.0437 11.1521C99.2735 10.8753 99.4986 10.5955 99.717 10.3096C99.8071 10.1924 99.8957 10.0809 100.004 9.97993C99.9552 10.2947 99.8753 10.6002 99.7918 10.9072C99.781 10.9471 99.781 10.9471 99.77 10.9879C99.5999 11.6136 99.4066 12.2312 99.2042 12.8471C99.1962 12.8715 99.1882 12.896 99.18 12.9212C98.7978 14.088 98.3604 15.2364 97.8373 16.3477C97.8189 16.387 97.8004 16.4263 97.7814 16.4668C97.3432 17.3971 96.8741 18.3039 96.3371 19.1815C96.3157 19.2165 96.2944 19.2516 96.2724 19.2877C95.9883 19.7534 95.6901 20.2064 95.3702 20.6484C95.3505 20.6757 95.3308 20.703 95.3104 20.7311C94.9747 21.1939 94.6284 21.6453 94.2566 22.0798C94.1792 22.1706 94.1047 22.2636 94.0304 22.357C93.6533 22.8172 93.2229 23.2324 92.8031 23.6531C92.7805 23.6758 92.7578 23.6986 92.7345 23.722C92.2804 24.1774 92.2804 24.1774 92.0363 24.3824C91.9966 24.4172 91.9569 24.4521 91.9173 24.4871C91.6623 24.7107 91.4034 24.927 91.134 25.133C91.0898 25.1669 91.0458 25.201 91.0019 25.2352C90.2358 25.8323 89.4162 26.3745 88.5691 26.8495C88.5401 26.8658 88.5111 26.8822 88.4812 26.899C87.3544 27.532 86.1875 28.0551 84.9685 28.4831C84.9302 28.4966 84.8919 28.5102 84.8524 28.5242C82.4905 29.3545 79.9935 29.7808 77.5005 29.95C77.4752 29.9517 77.4499 29.9535 77.4238 29.9553C75.791 30.066 74.1322 30.0651 72.4997 29.95C72.4492 29.9466 72.3988 29.9431 72.3483 29.9397C69.7989 29.7637 67.2726 29.2839 64.8596 28.4378C64.8035 28.4182 64.7473 28.3987 64.6911 28.3793C63.8024 28.0716 62.9447 27.6903 62.0979 27.2829C62.0471 27.2584 62.0471 27.2584 61.9952 27.2335C61.5179 27.003 61.056 26.7488 60.5977 26.4827C60.571 26.4674 60.5443 26.4521 60.5169 26.4364C59.9575 26.1148 59.4253 25.7504 58.8908 25.3897C58.8075 25.3336 58.7239 25.2778 58.6403 25.222C58.3043 24.9965 57.9831 24.7556 57.6663 24.5039C57.6007 24.4519 57.5348 24.4002 57.4687 24.3486C57.1014 24.062 56.7421 23.7663 56.3874 23.4642C56.3488 23.4313 56.3101 23.3984 56.2715 23.3656C56.0366 23.1661 55.8049 22.9642 55.5778 22.7559C55.51 22.6941 55.4413 22.6336 55.3718 22.5737C55.0796 22.3196 54.7968 22.0529 54.5257 21.7766C54.4688 21.7206 54.4104 21.6692 54.3494 21.6178C54.1455 21.4403 53.9572 21.2466 53.7666 21.0551C53.7236 21.0121 53.6806 20.9691 53.6377 20.9261C53.5456 20.8339 53.4535 20.7416 53.3615 20.6493C53.2159 20.5032 53.0701 20.3573 52.9243 20.2113C52.5885 19.8752 52.253 19.5388 51.9174 19.2025C51.6097 18.8941 51.3019 18.5858 50.994 18.2775C50.8493 18.1326 50.7046 17.9876 50.56 17.8425C50.4698 17.7521 50.3796 17.6618 50.2894 17.5715C50.2477 17.5298 50.2061 17.4881 50.1645 17.4463C49.8821 17.1623 49.8821 17.1623 49.5837 16.8952C49.5237 16.8431 49.4681 16.7878 49.4124 16.7311C49.3135 16.6306 49.2099 16.5377 49.1031 16.4457C49.018 16.3714 48.935 16.295 48.8519 16.2185C48.7029 16.0826 48.5498 15.9538 48.3927 15.8273C48.3248 15.7715 48.2582 15.7154 48.1922 15.6575C47.8886 15.391 47.5706 15.1476 47.2452 14.9085C47.1672 14.8512 47.0894 14.7935 47.0118 14.7357C46.4656 14.3324 45.8934 13.9706 45.295 13.65C45.2339 13.6169 45.1733 13.5826 45.1129 13.5482C43.2955 12.5323 41.0618 12.0955 38.994 12.0469C38.9645 12.0462 38.9351 12.0455 38.9048 12.0447C35.7572 11.9787 32.6533 13.0101 30.1258 14.8808C30.1027 14.8978 30.0796 14.9148 30.0558 14.9323C29.7856 15.1317 29.5192 15.3352 29.259 15.5475C29.2293 15.5714 29.1996 15.5953 29.169 15.6199C28.9866 15.7675 28.8097 15.9195 28.6362 16.0774C28.5688 16.1386 28.5006 16.1986 28.4318 16.2581C28.0989 16.5488 27.7804 16.8539 27.4685 17.167C27.4123 17.2234 27.3559 17.2796 27.2994 17.3359C27.1297 17.5055 26.9628 17.6755 26.8069 17.8581C26.7335 17.9439 26.6563 18.0258 26.5794 18.1084C26.4362 18.2633 26.3007 18.4228 26.1684 18.5873C26.1009 18.6702 26.032 18.7516 25.9623 18.8326C25.7632 19.0644 25.5774 19.305 25.393 19.5485C25.2733 19.7064 25.15 19.8612 25.0249 20.015C24.9733 19.883 25.0118 19.7715 25.0484 19.6409C25.0548 19.617 25.0613 19.5931 25.0679 19.5685C25.0893 19.4894 25.1113 19.4105 25.1333 19.3315C25.1486 19.2758 25.1639 19.2202 25.1792 19.1645C25.868 16.6739 26.7552 14.2138 28.3255 11.3802C28.3437 11.3488 28.3619 11.3174 28.3806 11.2851C28.618 10.876 28.8628 10.4732 29.1256 10.0799C29.1445 10.0518 29.1633 10.0236 29.1827 9.99454C29.5889 9.38814 30.0128 8.79937 30.4784 8.23708C30.5455 8.15587 30.6117 8.07392 30.678 7.99209C31.1537 7.41301 31.6639 6.87227 32.1928 6.34181C32.2107 6.32383 32.2286 6.30585 32.247 6.28733C32.4452 6.08838 32.6457 5.89479 32.8596 5.71253C32.9132 5.66404 32.9667 5.61544 33.0201 5.56668C33.3229 5.29378 33.6441 5.04225 33.9661 4.79259C34.0047 4.7626 34.0432 4.73248 34.0816 4.70221C34.7828 4.14961 35.5504 3.65173 36.3269 3.21211C36.3541 3.19662 36.3814 3.18113 36.4095 3.16518C38.9145 1.75125 41.6577 0.867806 49.7624 0.00103912Z" fill="#DFB2F2"/>
</svg>
